<svg xmlns="http://www.w3.org/2000/svg" version="1.1" xmlns:xlink="http://www.w3.org/1999/xlink" xmlns:svgjs="http://svgjs.dev/svgjs" width="1440" height="560" preserveAspectRatio="none" viewBox="0 0 1440 560"><g mask="url(&quot;#SvgjsMask1159&quot;)" fill="none"><rect width="1440" height="560" x="0" y="0" fill="rgba(66, 132, 153, 1)"></rect><path d="M0,481.425C132.943,489.087,253.342,636.033,376.999,586.621C496.52,538.862,511.217,374.931,562.233,256.763C612.132,141.183,692.404,27.606,671.969,-96.615C651.627,-220.273,548.162,-310.41,455.12,-394.364C370.862,-470.391,267.552,-511.167,163.171,-555.711C44.476,-606.364,-79.091,-724.033,-197.583,-672.906C-319.707,-620.212,-312.825,-442.14,-373.892,-323.98C-418.317,-238.021,-469.312,-161.835,-507.631,-72.986C-559.936,48.291,-672.24,164.117,-639.596,292.094C-607.284,418.768,-475.42,507.608,-350.067,544.715C-234.013,579.069,-120.831,474.461,0,481.425" fill="#2f5e6d"></path><path d="M1440 1098.65C1544.875 1112.393 1666.823 1105.278 1743.828 1032.766 1820.068 960.975 1797.099 836.796 1825.2069999999999 735.918 1848.101 653.753 1903.961 579.442 1893.731 494.76300000000003 1883.412 409.346 1823.406 341.546 1769.468 274.514 1713.66 205.15699999999998 1655.844 137.07600000000002 1575.339 99.07799999999997 1486.058 56.93700000000001 1381.587 11.996999999999957 1289.679 48.053 1198.093 83.983 1177.502 202.46499999999997 1116.021 279.271 1057.686 352.14599999999996 968.696 399.73199999999997 937.6890000000001 487.779 903.52 584.802 888.588 698.891 936.117 790.116 983.216 880.5160000000001 1096.438 906.094 1183.37 959.3240000000001 1268.097 1011.204 1341.493 1085.742 1440 1098.65" fill="#60a5ba"></path></g><defs><mask id="SvgjsMask1159"><rect width="1440" height="560" fill="#ffffff"></rect></mask></defs></svg>