<svg xmlns="http://www.w3.org/2000/svg" version="1.1" xmlns:xlink="http://www.w3.org/1999/xlink" xmlns:svgjs="http://svgjs.dev/svgjs" width="1440" height="560" preserveAspectRatio="none" viewBox="0 0 1440 560"><g mask="url(&quot;#SvgjsMask1480&quot;)" fill="none"><rect width="1440" height="560" x="0" y="0" fill="url(&quot;#SvgjsLinearGradient1481&quot;)"></rect><path d="M576 338L166 748" stroke-width="8" stroke="url(&quot;#SvgjsLinearGradient1482&quot;)" stroke-linecap="round" class="BottomLeft"></path><path d="M1414 109L1655 -132" stroke-width="6" stroke="url(&quot;#SvgjsLinearGradient1482&quot;)" stroke-linecap="round" class="BottomLeft"></path><path d="M1218 541L1536 223" stroke-width="10" stroke="url(&quot;#SvgjsLinearGradient1483&quot;)" stroke-linecap="round" class="TopRight"></path><path d="M948 144L561 531" stroke-width="6" stroke="url(&quot;#SvgjsLinearGradient1482&quot;)" stroke-linecap="round" class="BottomLeft"></path><path d="M457 11L728 -260" stroke-width="10" stroke="url(&quot;#SvgjsLinearGradient1483&quot;)" stroke-linecap="round" class="TopRight"></path><path d="M129 124L-130 383" stroke-width="10" stroke="url(&quot;#SvgjsLinearGradient1483&quot;)" stroke-linecap="round" class="TopRight"></path><path d="M970 384L1383 -29" stroke-width="6" stroke="url(&quot;#SvgjsLinearGradient1483&quot;)" stroke-linecap="round" class="TopRight"></path><path d="M19 517L-247 783" stroke-width="8" stroke="url(&quot;#SvgjsLinearGradient1482&quot;)" stroke-linecap="round" class="BottomLeft"></path><path d="M341 535L192 684" stroke-width="6" stroke="url(&quot;#SvgjsLinearGradient1482&quot;)" stroke-linecap="round" class="BottomLeft"></path><path d="M166 439L-48 653" stroke-width="10" stroke="url(&quot;#SvgjsLinearGradient1482&quot;)" stroke-linecap="round" class="BottomLeft"></path><path d="M830 485L620 695" stroke-width="6" stroke="url(&quot;#SvgjsLinearGradient1482&quot;)" stroke-linecap="round" class="BottomLeft"></path><path d="M1026 2L756 272" stroke-width="6" stroke="url(&quot;#SvgjsLinearGradient1482&quot;)" stroke-linecap="round" class="BottomLeft"></path><path d="M244 427L497 174" stroke-width="10" stroke="url(&quot;#SvgjsLinearGradient1483&quot;)" stroke-linecap="round" class="TopRight"></path><path d="M495 78L338 235" stroke-width="10" stroke="url(&quot;#SvgjsLinearGradient1483&quot;)" stroke-linecap="round" class="TopRight"></path><path d="M499 310L787 22" stroke-width="6" stroke="url(&quot;#SvgjsLinearGradient1482&quot;)" stroke-linecap="round" class="BottomLeft"></path><path d="M1223 57L1381 -101" stroke-width="10" stroke="url(&quot;#SvgjsLinearGradient1482&quot;)" stroke-linecap="round" class="BottomLeft"></path><path d="M1344 347L1009 682" stroke-width="10" stroke="url(&quot;#SvgjsLinearGradient1483&quot;)" stroke-linecap="round" class="TopRight"></path><path d="M593 146L882 -143" stroke-width="6" stroke="url(&quot;#SvgjsLinearGradient1482&quot;)" stroke-linecap="round" class="BottomLeft"></path><path d="M254 243L407 90" stroke-width="8" stroke="url(&quot;#SvgjsLinearGradient1482&quot;)" stroke-linecap="round" class="BottomLeft"></path><path d="M297 138L576 -141" stroke-width="8" stroke="url(&quot;#SvgjsLinearGradient1482&quot;)" stroke-linecap="round" class="BottomLeft"></path><path d="M840 265L1048 57" stroke-width="10" stroke="url(&quot;#SvgjsLinearGradient1483&quot;)" stroke-linecap="round" class="TopRight"></path><path d="M1233 2L962 273" stroke-width="8" stroke="url(&quot;#SvgjsLinearGradient1483&quot;)" stroke-linecap="round" class="TopRight"></path><path d="M1181 21L916 286" stroke-width="10" stroke="url(&quot;#SvgjsLinearGradient1482&quot;)" stroke-linecap="round" class="BottomLeft"></path><path d="M370 331L633 68" stroke-width="6" stroke="url(&quot;#SvgjsLinearGradient1482&quot;)" stroke-linecap="round" class="BottomLeft"></path><path d="M496 235L278 453" stroke-width="8" stroke="url(&quot;#SvgjsLinearGradient1483&quot;)" stroke-linecap="round" class="TopRight"></path><path d="M955 64L582 437" stroke-width="10" stroke="url(&quot;#SvgjsLinearGradient1483&quot;)" stroke-linecap="round" class="TopRight"></path><path d="M410 105L36 479" stroke-width="8" stroke="url(&quot;#SvgjsLinearGradient1482&quot;)" stroke-linecap="round" class="BottomLeft"></path><path d="M813 243L572 484" stroke-width="10" stroke="url(&quot;#SvgjsLinearGradient1482&quot;)" stroke-linecap="round" class="BottomLeft"></path><path d="M461 212L807 -134" stroke-width="6" stroke="url(&quot;#SvgjsLinearGradient1482&quot;)" stroke-linecap="round" class="BottomLeft"></path><path d="M1108 261L903 466" stroke-width="10" stroke="url(&quot;#SvgjsLinearGradient1482&quot;)" stroke-linecap="round" class="BottomLeft"></path><path d="M382 532L-11 925" stroke-width="10" stroke="url(&quot;#SvgjsLinearGradient1482&quot;)" stroke-linecap="round" class="BottomLeft"></path><path d="M697 454L840 311" stroke-width="6" stroke="url(&quot;#SvgjsLinearGradient1483&quot;)" stroke-linecap="round" class="TopRight"></path><path d="M752 394L997 149" stroke-width="6" stroke="url(&quot;#SvgjsLinearGradient1483&quot;)" stroke-linecap="round" class="TopRight"></path><path d="M40 516L201 355" stroke-width="8" stroke="url(&quot;#SvgjsLinearGradient1483&quot;)" stroke-linecap="round" class="TopRight"></path><path d="M977 548L561 964" stroke-width="10" stroke="url(&quot;#SvgjsLinearGradient1482&quot;)" stroke-linecap="round" class="BottomLeft"></path><path d="M578 91L767 -98" stroke-width="8" stroke="url(&quot;#SvgjsLinearGradient1483&quot;)" stroke-linecap="round" class="TopRight"></path><path d="M1423 230L1157 496" stroke-width="10" stroke="url(&quot;#SvgjsLinearGradient1482&quot;)" stroke-linecap="round" class="BottomLeft"></path><path d="M1196 518L1465 249" stroke-width="10" stroke="url(&quot;#SvgjsLinearGradient1483&quot;)" stroke-linecap="round" class="TopRight"></path><path d="M154 543L-204 901" stroke-width="8" stroke="url(&quot;#SvgjsLinearGradient1482&quot;)" stroke-linecap="round" class="BottomLeft"></path></g><defs><mask id="SvgjsMask1480"><rect width="1440" height="560" fill="#ffffff"></rect></mask><linearGradient x1="15.28%" y1="139.29%" x2="84.72%" y2="-39.29%" gradientUnits="userSpaceOnUse" id="SvgjsLinearGradient1481"><stop stop-color="#0e2a47" offset="0"></stop><stop stop-color="rgba(0, 158, 138, 1)" offset="1"></stop></linearGradient><linearGradient x1="100%" y1="0%" x2="0%" y2="100%" id="SvgjsLinearGradient1482"><stop stop-color="rgba(28, 83, 142, 0)" offset="0"></stop><stop stop-color="#1c538e" offset="1"></stop></linearGradient><linearGradient x1="0%" y1="100%" x2="100%" y2="0%" id="SvgjsLinearGradient1483"><stop stop-color="rgba(28, 83, 142, 0)" offset="0"></stop><stop stop-color="#1c538e" offset="1"></stop></linearGradient></defs></svg>