<svg xmlns="http://www.w3.org/2000/svg" version="1.1" xmlns:xlink="http://www.w3.org/1999/xlink" xmlns:svgjs="http://svgjs.dev/svgjs" width="1440" height="560" preserveAspectRatio="none" viewBox="0 0 1440 560"><g mask="url(&quot;#SvgjsMask1110&quot;)" fill="none"><rect width="1440" height="560" x="0" y="0" fill="#0e2a47"></rect><path d="M109.92 67.25L200.85 119.75L200.85 224.75L109.92 277.25L18.98 224.75L18.98 119.75zM18.98 224.75L109.92 277.25L109.92 382.25L18.98 434.75L-71.96 382.25L-71.96 277.25zM109.92 382.25L200.85 434.75L200.85 539.75L109.92 592.25L18.98 539.75L18.98 434.75zM18.98 539.75L109.92 592.25L109.92 697.25L18.98 749.75L-71.96 697.25L-71.96 592.25zM200.85 -90.25L291.79 -37.75L291.79 67.25L200.85 119.75L109.92 67.25L109.92 -37.75zM291.79 382.25L382.72 434.75L382.72 539.75L291.79 592.25L200.85 539.75L200.85 434.75zM200.85 539.75L291.79 592.25L291.79 697.25L200.85 749.75L109.92 697.25L109.92 592.25zM473.66 67.25L564.59 119.75L564.59 224.75L473.66 277.25L382.72 224.75L382.72 119.75zM382.72 539.75L473.66 592.25L473.66 697.25L382.72 749.75L291.79 697.25L291.79 592.25zM564.59 539.75L655.53 592.25L655.53 697.25L564.59 749.75L473.66 697.25L473.66 592.25zM837.4 67.25L928.33 119.75L928.33 224.75L837.4 277.25L746.46 224.75L746.46 119.75zM746.46 224.75L837.4 277.25L837.4 382.25L746.46 434.75L655.53 382.25L655.53 277.25zM928.33 -90.25L1019.27 -37.75L1019.27 67.25L928.33 119.75L837.4 67.25L837.4 -37.75zM1019.27 67.25L1110.2 119.75L1110.2 224.75L1019.27 277.25L928.33 224.75L928.33 119.75zM928.33 224.75L1019.27 277.25L1019.27 382.25L928.33 434.75L837.4 382.25L837.4 277.25zM1019.27 382.25L1110.2 434.75L1110.2 539.75L1019.27 592.25L928.33 539.75L928.33 434.75zM928.33 539.75L1019.27 592.25L1019.27 697.25L928.33 749.75L837.4 697.25L837.4 592.25zM1201.14 67.25L1292.07 119.75L1292.07 224.75L1201.14 277.25L1110.2 224.75L1110.2 119.75zM1110.2 224.75L1201.14 277.25L1201.14 382.25L1110.2 434.75L1019.27 382.25L1019.27 277.25zM1110.2 539.75L1201.14 592.25L1201.14 697.25L1110.2 749.75L1019.27 697.25L1019.27 592.25zM1292.07 224.75L1383.01 277.25L1383.01 382.25L1292.07 434.75L1201.14 382.25L1201.14 277.25zM1292.07 539.75L1383.01 592.25L1383.01 697.25L1292.07 749.75L1201.14 697.25L1201.14 592.25z" stroke="url(&quot;#SvgjsLinearGradient1111&quot;)" stroke-width="2"></path><path d="M99.42 67.25 a10.5 10.5 0 1 0 21 0 a10.5 10.5 0 1 0 -21 0zM190.35 119.75 a10.5 10.5 0 1 0 21 0 a10.5 10.5 0 1 0 -21 0zM190.35 224.75 a10.5 10.5 0 1 0 21 0 a10.5 10.5 0 1 0 -21 0zM99.42 277.25 a10.5 10.5 0 1 0 21 0 a10.5 10.5 0 1 0 -21 0zM8.48 224.75 a10.5 10.5 0 1 0 21 0 a10.5 10.5 0 1 0 -21 0zM8.48 119.75 a10.5 10.5 0 1 0 21 0 a10.5 10.5 0 1 0 -21 0zM99.42 382.25 a10.5 10.5 0 1 0 21 0 a10.5 10.5 0 1 0 -21 0zM8.48 434.75 a10.5 10.5 0 1 0 21 0 a10.5 10.5 0 1 0 -21 0zM-82.46 382.25 a10.5 10.5 0 1 0 21 0 a10.5 10.5 0 1 0 -21 0zM-82.46 277.25 a10.5 10.5 0 1 0 21 0 a10.5 10.5 0 1 0 -21 0zM190.35 434.75 a10.5 10.5 0 1 0 21 0 a10.5 10.5 0 1 0 -21 0zM190.35 539.75 a10.5 10.5 0 1 0 21 0 a10.5 10.5 0 1 0 -21 0zM99.42 592.25 a10.5 10.5 0 1 0 21 0 a10.5 10.5 0 1 0 -21 0zM8.48 539.75 a10.5 10.5 0 1 0 21 0 a10.5 10.5 0 1 0 -21 0zM99.42 697.25 a10.5 10.5 0 1 0 21 0 a10.5 10.5 0 1 0 -21 0zM8.48 749.75 a10.5 10.5 0 1 0 21 0 a10.5 10.5 0 1 0 -21 0zM-82.46 697.25 a10.5 10.5 0 1 0 21 0 a10.5 10.5 0 1 0 -21 0zM-82.46 592.25 a10.5 10.5 0 1 0 21 0 a10.5 10.5 0 1 0 -21 0zM190.35 -90.25 a10.5 10.5 0 1 0 21 0 a10.5 10.5 0 1 0 -21 0zM281.29 -37.75 a10.5 10.5 0 1 0 21 0 a10.5 10.5 0 1 0 -21 0zM281.29 67.25 a10.5 10.5 0 1 0 21 0 a10.5 10.5 0 1 0 -21 0zM99.42 -37.75 a10.5 10.5 0 1 0 21 0 a10.5 10.5 0 1 0 -21 0zM281.29 382.25 a10.5 10.5 0 1 0 21 0 a10.5 10.5 0 1 0 -21 0zM372.22 434.75 a10.5 10.5 0 1 0 21 0 a10.5 10.5 0 1 0 -21 0zM372.22 539.75 a10.5 10.5 0 1 0 21 0 a10.5 10.5 0 1 0 -21 0zM281.29 592.25 a10.5 10.5 0 1 0 21 0 a10.5 10.5 0 1 0 -21 0zM281.29 697.25 a10.5 10.5 0 1 0 21 0 a10.5 10.5 0 1 0 -21 0zM190.35 749.75 a10.5 10.5 0 1 0 21 0 a10.5 10.5 0 1 0 -21 0zM463.16 67.25 a10.5 10.5 0 1 0 21 0 a10.5 10.5 0 1 0 -21 0zM554.09 119.75 a10.5 10.5 0 1 0 21 0 a10.5 10.5 0 1 0 -21 0zM554.09 224.75 a10.5 10.5 0 1 0 21 0 a10.5 10.5 0 1 0 -21 0zM463.16 277.25 a10.5 10.5 0 1 0 21 0 a10.5 10.5 0 1 0 -21 0zM372.22 224.75 a10.5 10.5 0 1 0 21 0 a10.5 10.5 0 1 0 -21 0zM372.22 119.75 a10.5 10.5 0 1 0 21 0 a10.5 10.5 0 1 0 -21 0zM463.16 592.25 a10.5 10.5 0 1 0 21 0 a10.5 10.5 0 1 0 -21 0zM463.16 697.25 a10.5 10.5 0 1 0 21 0 a10.5 10.5 0 1 0 -21 0zM372.22 749.75 a10.5 10.5 0 1 0 21 0 a10.5 10.5 0 1 0 -21 0zM554.09 539.75 a10.5 10.5 0 1 0 21 0 a10.5 10.5 0 1 0 -21 0zM645.03 592.25 a10.5 10.5 0 1 0 21 0 a10.5 10.5 0 1 0 -21 0zM645.03 697.25 a10.5 10.5 0 1 0 21 0 a10.5 10.5 0 1 0 -21 0zM554.09 749.75 a10.5 10.5 0 1 0 21 0 a10.5 10.5 0 1 0 -21 0zM826.9 67.25 a10.5 10.5 0 1 0 21 0 a10.5 10.5 0 1 0 -21 0zM917.83 119.75 a10.5 10.5 0 1 0 21 0 a10.5 10.5 0 1 0 -21 0zM917.83 224.75 a10.5 10.5 0 1 0 21 0 a10.5 10.5 0 1 0 -21 0zM826.9 277.25 a10.5 10.5 0 1 0 21 0 a10.5 10.5 0 1 0 -21 0zM735.96 224.75 a10.5 10.5 0 1 0 21 0 a10.5 10.5 0 1 0 -21 0zM735.96 119.75 a10.5 10.5 0 1 0 21 0 a10.5 10.5 0 1 0 -21 0zM826.9 382.25 a10.5 10.5 0 1 0 21 0 a10.5 10.5 0 1 0 -21 0zM735.96 434.75 a10.5 10.5 0 1 0 21 0 a10.5 10.5 0 1 0 -21 0zM645.03 382.25 a10.5 10.5 0 1 0 21 0 a10.5 10.5 0 1 0 -21 0zM645.03 277.25 a10.5 10.5 0 1 0 21 0 a10.5 10.5 0 1 0 -21 0zM917.83 -90.25 a10.5 10.5 0 1 0 21 0 a10.5 10.5 0 1 0 -21 0zM1008.77 -37.75 a10.5 10.5 0 1 0 21 0 a10.5 10.5 0 1 0 -21 0zM1008.77 67.25 a10.5 10.5 0 1 0 21 0 a10.5 10.5 0 1 0 -21 0zM826.9 -37.75 a10.5 10.5 0 1 0 21 0 a10.5 10.5 0 1 0 -21 0zM1099.7 119.75 a10.5 10.5 0 1 0 21 0 a10.5 10.5 0 1 0 -21 0zM1099.7 224.75 a10.5 10.5 0 1 0 21 0 a10.5 10.5 0 1 0 -21 0zM1008.77 277.25 a10.5 10.5 0 1 0 21 0 a10.5 10.5 0 1 0 -21 0zM1008.77 382.25 a10.5 10.5 0 1 0 21 0 a10.5 10.5 0 1 0 -21 0zM917.83 434.75 a10.5 10.5 0 1 0 21 0 a10.5 10.5 0 1 0 -21 0zM1099.7 434.75 a10.5 10.5 0 1 0 21 0 a10.5 10.5 0 1 0 -21 0zM1099.7 539.75 a10.5 10.5 0 1 0 21 0 a10.5 10.5 0 1 0 -21 0zM1008.77 592.25 a10.5 10.5 0 1 0 21 0 a10.5 10.5 0 1 0 -21 0zM917.83 539.75 a10.5 10.5 0 1 0 21 0 a10.5 10.5 0 1 0 -21 0zM1008.77 697.25 a10.5 10.5 0 1 0 21 0 a10.5 10.5 0 1 0 -21 0zM917.83 749.75 a10.5 10.5 0 1 0 21 0 a10.5 10.5 0 1 0 -21 0zM826.9 697.25 a10.5 10.5 0 1 0 21 0 a10.5 10.5 0 1 0 -21 0zM826.9 592.25 a10.5 10.5 0 1 0 21 0 a10.5 10.5 0 1 0 -21 0zM1190.64 67.25 a10.5 10.5 0 1 0 21 0 a10.5 10.5 0 1 0 -21 0zM1281.57 119.75 a10.5 10.5 0 1 0 21 0 a10.5 10.5 0 1 0 -21 0zM1281.57 224.75 a10.5 10.5 0 1 0 21 0 a10.5 10.5 0 1 0 -21 0zM1190.64 277.25 a10.5 10.5 0 1 0 21 0 a10.5 10.5 0 1 0 -21 0zM1190.64 382.25 a10.5 10.5 0 1 0 21 0 a10.5 10.5 0 1 0 -21 0zM1190.64 592.25 a10.5 10.5 0 1 0 21 0 a10.5 10.5 0 1 0 -21 0zM1190.64 697.25 a10.5 10.5 0 1 0 21 0 a10.5 10.5 0 1 0 -21 0zM1099.7 749.75 a10.5 10.5 0 1 0 21 0 a10.5 10.5 0 1 0 -21 0zM1372.51 277.25 a10.5 10.5 0 1 0 21 0 a10.5 10.5 0 1 0 -21 0zM1372.51 382.25 a10.5 10.5 0 1 0 21 0 a10.5 10.5 0 1 0 -21 0zM1281.57 434.75 a10.5 10.5 0 1 0 21 0 a10.5 10.5 0 1 0 -21 0zM1281.57 539.75 a10.5 10.5 0 1 0 21 0 a10.5 10.5 0 1 0 -21 0zM1372.51 592.25 a10.5 10.5 0 1 0 21 0 a10.5 10.5 0 1 0 -21 0zM1372.51 697.25 a10.5 10.5 0 1 0 21 0 a10.5 10.5 0 1 0 -21 0zM1281.57 749.75 a10.5 10.5 0 1 0 21 0 a10.5 10.5 0 1 0 -21 0z" fill="url(&quot;#SvgjsLinearGradient1111&quot;)"></path><path d="M19.77 591.27L105.51 640.77L105.51 739.77L19.77 789.27L-65.97 739.77L-65.97 640.77zM191.25 -2.73L276.99 46.77L276.99 145.77L191.25 195.27L105.51 145.77L105.51 46.77zM276.99 442.77L362.73 492.27L362.73 591.27L276.99 640.77L191.25 591.27L191.25 492.27zM362.73 294.27L448.46 343.77L448.46 442.77L362.73 492.27L276.99 442.77L276.99 343.77zM448.46 442.77L534.2 492.27L534.2 591.27L448.46 640.77L362.73 591.27L362.73 492.27zM362.73 591.27L448.46 640.77L448.46 739.77L362.73 789.27L276.99 739.77L276.99 640.77zM534.2 -2.73L619.94 46.77L619.94 145.77L534.2 195.27L448.46 145.77L448.46 46.77zM619.94 145.77L705.68 195.27L705.68 294.27L619.94 343.77L534.2 294.27L534.2 195.27zM791.42 145.77L877.16 195.27L877.16 294.27L791.42 343.77L705.68 294.27L705.68 195.27zM791.42 442.77L877.16 492.27L877.16 591.27L791.42 640.77L705.68 591.27L705.68 492.27zM877.16 -2.73L962.9 46.77L962.9 145.77L877.16 195.27L791.42 145.77L791.42 46.77zM962.9 145.77L1048.64 195.27L1048.64 294.27L962.9 343.77L877.16 294.27L877.16 195.27zM962.9 442.77L1048.64 492.27L1048.64 591.27L962.9 640.77L877.16 591.27L877.16 492.27zM1134.38 442.77L1220.12 492.27L1220.12 591.27L1134.38 640.77L1048.64 591.27L1048.64 492.27zM1048.64 591.27L1134.38 640.77L1134.38 739.77L1048.64 789.27L962.9 739.77L962.9 640.77zM1220.12 -2.73L1305.85 46.77L1305.85 145.77L1220.12 195.27L1134.38 145.77L1134.38 46.77zM1220.12 591.27L1305.85 640.77L1305.85 739.77L1220.12 789.27L1134.38 739.77L1134.38 640.77zM1477.33 442.77L1563.07 492.27L1563.07 591.27L1477.33 640.77L1391.59 591.27L1391.59 492.27zM1391.59 591.27L1477.33 640.77L1477.33 739.77L1391.59 789.27L1305.85 739.77L1305.85 640.77z" stroke="rgba(6, 80, 156, 0.93)" stroke-width="2"></path></g><defs><mask id="SvgjsMask1110"><rect width="1440" height="560" fill="#ffffff"></rect></mask><linearGradient x1="220.03199999999998" y1="780.024" x2="1219.9679999999998" y2="-220.02399999999997" gradientUnits="userSpaceOnUse" id="SvgjsLinearGradient1111"><stop stop-color="rgba(158, 0, 129, 1)" offset="0"></stop><stop stop-color="#03305d" offset="1"></stop></linearGradient></defs></svg>