<svg xmlns="http://www.w3.org/2000/svg" version="1.1" xmlns:xlink="http://www.w3.org/1999/xlink" xmlns:svgjs="http://svgjs.dev/svgjs" width="1440" height="560" preserveAspectRatio="none" viewBox="0 0 1440 560"><g mask="url(&quot;#SvgjsMask2352&quot;)" fill="none"><rect width="1440" height="560" x="0" y="0" fill="url(&quot;#SvgjsLinearGradient2353&quot;)"></rect><circle r="6.975" cx="147.575" cy="515.225" filter="url(#SvgjsFilter2354)" fill="rgba(51, 121, 194, 0.58)"></circle><circle r="5.655" cx="820.165" cy="276.505" filter="url(#SvgjsFilter2354)" fill="rgba(51, 121, 194, 0.58)"></circle><circle r="8.105" cx="285.995" cy="441.415" filter="url(#SvgjsFilter2354)" fill="rgba(51, 121, 194, 0.58)"></circle><circle r="8.9" cx="792.52" cy="337.63" filter="url(#SvgjsFilter2354)" fill="rgba(51, 121, 194, 0.58)"></circle><circle r="6.025" cx="356.905" cy="322.525" filter="url(#SvgjsFilter2354)" fill="rgba(51, 121, 194, 0.58)"></circle><circle r="4.87" cx="1442.3" cy="251.74" filter="url(#SvgjsFilter2354)" fill="rgba(51, 121, 194, 0.58)"></circle><circle r="7.005" cx="1391.035" cy="278.125" filter="url(#SvgjsFilter2354)" fill="rgba(51, 121, 194, 0.58)"></circle><circle r="6.655" cx="1400.195" cy="421.05499999999995" filter="url(#SvgjsFilter2354)" fill="rgba(51, 121, 194, 0.58)"></circle><circle r="6.825" cx="442.905" cy="363.28499999999997" filter="url(#SvgjsFilter2354)" fill="rgba(51, 121, 194, 0.58)"></circle><circle r="5.535" cx="44.735" cy="483.235" filter="url(#SvgjsFilter2354)" fill="rgba(51, 121, 194, 0.58)"></circle><circle r="5.42" cx="1225.91" cy="217.47" filter="url(#SvgjsFilter2354)" fill="rgba(51, 121, 194, 0.58)"></circle><circle r="8.565" cx="103.755" cy="178.765" filter="url(#SvgjsFilter2354)" fill="rgba(51, 121, 194, 0.58)"></circle><circle r="6.72" cx="1253.31" cy="506.05" filter="url(#SvgjsFilter2354)" fill="rgba(51, 121, 194, 0.58)"></circle><circle r="8.01" cx="1417.78" cy="220.85999999999999" filter="url(#SvgjsFilter2354)" fill="rgba(51, 121, 194, 0.58)"></circle><circle r="6.535" cx="734.285" cy="506.615" filter="url(#SvgjsFilter2354)" fill="rgba(51, 121, 194, 0.58)"></circle><circle r="7.105" cx="423.045" cy="426.875" filter="url(#SvgjsFilter2354)" fill="rgba(51, 121, 194, 0.58)"></circle><circle r="4.965" cx="260.395" cy="513.845" filter="url(#SvgjsFilter2354)" fill="rgba(51, 121, 194, 0.58)"></circle><circle r="8.69" cx="244.74" cy="212.18" filter="url(#SvgjsFilter2354)" fill="rgba(51, 121, 194, 0.58)"></circle><circle r="4.72" cx="484.41" cy="342.18" filter="url(#SvgjsFilter2354)" fill="rgba(51, 121, 194, 0.58)"></circle><circle r="5.155" cx="687.8249999999999" cy="252.085" filter="url(#SvgjsFilter2354)" fill="rgba(51, 121, 194, 0.58)"></circle><path d="M470.4 174.5L460.3 226.5 448.3 234.9 419 220.7 417.6 205.9 452.6 165.9C452.9 165.3 452.9 165.3 453.1 164.7 453.7 163.6 453.7 162.2 452.2 160.7 450.5 159.9 449.1 159.9 447.6 161.4L417.2 196.4 415.5 173.5 428.7 157.9C428.7 157.9 429 157.3 429 157.3 429.5 156.2 429.5 154.8 428.1 153.3 427.2 152.2 424.9 152.5 423.5 154L414.5 163.8 413.4 147C413.4 145.5 411.9 144.1 409.9 143.9S406.8 145.9 406.5 147.9L407.9 164.2 397.8 155.7C396.3 154.3 394 154.7 392.6 156.1 392.1 157.3 391.8 159.3 393.3 160.7L408.9 173.9 410.3 197.4 375.3 166.9C373.9 165.5 371.6 165.8 370.4 166.7 369.6 168.4 369.3 170.4 370.8 171.9L411 206.2 412.1 221.7 385.7 239.5 371.9 232.8 354.1 183C353.5 181.2 351.7 180.4 350 181S347.5 183.3 348.1 185L363.8 228.9 342.5 218.6 336 199.8C335.4 198.1 333.6 197.3 331.3 197.6S328.8 199.9 329.4 201.6L334.4 214.7 318.9 207.2C317.2 206.3 315.2 207.5 314.3 209.2 313.5 211 314.1 212.7 315.8 213.5L331.4 221 318.6 225.5C316.3 225.8 315.4 227.6 316.6 229.5 317.2 231.2 318.9 232.1 320.6 231.5L339.4 224.9 360.8 235.2 316.6 250.1C314.9 250.7 313.8 253 314.4 254.8S316.7 257.3 318.4 256.7L368.8 239.1 382.7 245.8 384.8 278.1 372.3 286.3 320.4 276.1C318.4 275.9 317 277.3 316.1 279.1 315.9 281.1 317.3 282.5 319 283.3L364.7 291.9 345.7 304.7 325.6 300.7C323.6 300.4 322.1 301.9 321.3 303.6 321.3 305 322.5 307 324.5 307.3L337.4 310 323.5 319.6C322.4 320.5 322.1 322.5 322.7 324.2 324.2 325.6 326.2 325.9 327.3 325L341.2 315.4 338.8 329.1C338.8 330.6 340 332.6 341.4 332.5 343.2 333.4 344.3 332.5 345.1 330.8 345.1 330.8 345.4 330.2 345.4 330.2L349.5 310.1 368.5 297.3 359.9 342.9C359.6 344.9 360.2 346.6 362.3 346.9 364.3 347.1 365.4 346.2 365.9 345.1 366.2 344.5 366.2 344.5 366.2 344.5L376.1 291.7 388.6 283.5 418 297.7 418.8 312.3 384.1 353.2C383 354 383.3 356.3 384.1 357.4 385.6 358.9 387.9 358.5 389.3 357.1L419.7 322 421.5 344.9 408.2 360.6C406.8 362 406.6 364 408.3 364.9 409.7 366.3 412 365.9 413.2 365.1L421.9 354.4 423 371.2C423.6 372.9 425 374.4 427 374.6 427.9 374.3 429 373.4 429.6 372.3 429.8 371.7 429.8 371.7 429.6 370.9L428.5 354 439.2 362.7C440.6 364.1 442.3 363.5 443.5 362.7 443.7 362.1 443.7 362.1 444 361.5 444.6 360.4 444.6 358.9 443.7 357.8L428.1 344.6 426.3 321.7 461.4 352.1C463.1 353 465.1 353.2 465.9 351.5 466.8 351.2 466.8 351.2 467.1 350.6 467.6 349.5 467 347.8 466.2 346.6L425.3 312 424.6 297.4 451.2 279 464.5 285.4 482 335.8C482.6 337.5 484.9 338.6 486.6 338S489.5 335.1 488.9 333.4L473.1 289.6 493.9 299.6 501 318.7C501.6 320.4 503.3 321.2 505 320.6 506.7 320 507.6 318.3 507 316.6L502.5 303.8 518.1 311.3C519.2 311.8 521.5 311.5 522.3 309.8 523.2 308.1 522.3 305.5 521.1 305L505.6 297.4 518.4 293C519.2 292.7 520.1 292.4 520.4 291.8 520.9 290.6 520.6 289.8 520.3 288.9 519.7 287.2 518 286.4 516.3 287L496.9 293.3 476.2 283.2 520.4 268.3C521.2 268 521.5 267.4 522 266.3 522.3 265.7 522.6 265.1 522.3 264.3 521.7 262.6 519.4 261.5 517.7 262.1L467.5 279 454.3 272.6 451.9 240.9 464 231.9 516.6 242.3C518 242.3 519.7 241.7 520.3 240.6 520.5 240 520.5 240 520 239.7 520.8 238 519.6 236 517.6 235.7L472 227.2 491.3 213.8 511.4 217.8C512.8 217.8 513.9 216.9 514.5 215.7 514.5 215.7 514.8 215.2 514.8 215.2 515.6 213.4 514.4 211.4 512.4 211.2L498.7 208.8 512.6 199.2C513.4 198.9 513.7 198.3 514 197.7 514.5 196.6 514.5 195.1 513.9 194.8 512.8 192.9 510.8 192.6 509 193.2L495.1 202.8 497.8 189.9C498.1 187.9 496.9 185.9 494.9 185.7 493.5 185.7 491.5 186.8 491.5 188.3L487.5 208.4 468.5 221.2 477 175.6C477.3 173.6 475.8 172.2 474.1 171.3 472.7 171.4 470.7 172.5 470.4 174.5ZM419.4 228.7L441.8 239.6 445.3 241.3 445.6 245 447.4 269.3 447.4 273.6 444.3 275.6 424.2 289.4 421 291.4 417.6 289.7 395.1 278.9 391.7 277.2 391.3 273.5 389.6 249.2 389.2 245.5 392.6 242.8 412.8 229.1 415.9 227.1 419.4 228.7Z" fill="rgba(51, 121, 194, 0.58)"></path><path d="M1079 235.2L1059.9 246.9 1059 233.4C1059 232 1057.6 230.5 1055.6 230.2 1053.9 230.8 1052.4 232.2 1053 233.9L1053.5 250.8 1039 260.6 1037.9 225.3C1037.4 223.6 1036 222.1 1034.6 222.1 1032.3 222.4 1030.8 223.8 1031.4 225.5L1032.7 264.4 1010.1 278.7 1012.4 248.1 988.5 267.4 987.3 240.8 1020 219.6C1020.6 219.9 1020.9 219.3 1021.2 218.7 1021.8 217.6 1021.8 216.2 1021 215 1020.1 213.8 1018.1 213.5 1016.4 214.1L986.9 233.3 986.6 215.8 1000.8 206.6C1001.6 206.4 1001.9 205.8 1002.2 205.2 1002.5 204.7 1002.6 203.2 1001.7 202.1 1000.9 200.9 998.9 200.6 997.7 201.4L986.1 208.4 984.8 186C985.1 184 983.4 183.1 981.4 182.8 980 182.8 978.6 184.2 978.8 186.5L979.6 208.6 967.6 202.3C965.9 201.4 963.9 202.6 963.3 203.7 962.4 205.4 963 207.1 964.7 208L980 216 980.3 233.5 949.6 217.5C947.9 216.6 946.2 217.1 945.3 218.8 944.7 220 945 222.3 946.7 223.1L980.7 240.9 982 267.6 956.8 250.8 961.4 280.7 937.6 268.2 936 229.8C935.7 227.5 934 226.6 932.6 226.6 931.1 226.6 929.7 228 929.4 230L931.3 265 916 257 914.9 239.8C915.2 237.8 913.8 236.3 911.5 236.6 910.1 236.5 908.6 237.9 908.9 240.2L909.2 253.4 889.4 243C887.7 242.2 885.9 242.7 885 244.4S884.7 247.8 886.4 248.7L906.2 259.1 895.2 266.3C893.2 267.4 892.9 269.4 893.7 270.6 894.8 272.6 896.8 272.9 898.3 271.5L913.1 262.6 928.4 270.6 898.6 289C897.1 290.4 896.8 292.4 897.6 293.6 898.7 295.6 900.7 295.9 902.2 294.5L934.6 273.9 958.4 286.3 931.3 299.6 959.4 310.7 936.9 324.9 902.8 307.1C901.1 306.2 899.1 307.3 898.5 308.5 897.6 310.2 898.2 311.9 899.9 312.8L931.1 329.1 916 338.5 900.7 330.5C899 329.7 897.3 330.2 896.4 331.9 895.8 333 896 335.3 897.7 336.2L909.7 342.4 891.1 354.4C889.1 355.5 888.8 357.5 890.2 359 891 360.2 892.7 361 894.2 359.6L913.3 347.9 914.2 361.4C914.2 362.8 915.6 364.3 917 364.3 918.4 364.4 919.6 363.5 919.9 362.9 920.2 362.4 920.5 361.8 920.2 360.9L919.6 344 934.1 334.3 935.2 369.5C935.8 371.2 937.2 372.7 938.6 372.7 940 372.7 941.2 371.9 941.8 370.8 942.1 370.2 942.1 370.2 941.8 369.3L940.5 330.4 963.1 316.2 960.8 346.8 984.6 327.4 985.9 354.1 953.2 375.3C952 376.1 951.1 377.8 952.2 379.8 953.1 381 955.1 381.3 956.8 380.8L986.3 361.5 986.6 379 972.4 388.2C970.7 388.7 970.3 390.7 971.5 392.8 972.3 393.9 974.3 394.2 976 393.7L987 386.5 988.4 408.8C988 410.8 989.7 411.7 991.7 412 992.6 411.7 993.8 410.9 994.1 410.3 994.3 409.8 994.6 409.2 994.4 408.3L993.6 386.3 1005.5 392.5C1007.2 393.4 1009.3 392.3 1009.8 391.1L1009.8 391.1C1010.7 389.4 1010.2 387.7 1008.5 386.8L993.2 378.8 992.9 361.4 1023.5 377.4C1025.2 378.2 1027 377.7 1027.9 376S1028.2 372.6 1026.5 371.7L992.5 353.9 991.2 327.3 1016.4 344 1011.8 314.2 1035.6 326.6 1037.2 365C1037.5 367.3 1039.2 368.2 1040.6 368.2 1042 368.2 1043.5 366.8 1043.8 364.8L1042.4 330.2 1057.2 337.9 1058.3 355.1C1058 357.1 1059.4 358.5 1061.7 358.3 1063.1 358.3 1064.6 356.9 1064.9 354.9L1064 341.4 1083.8 351.8C1085.5 352.7 1087.2 352.1 1088.1 350.4S1088.5 347 1086.8 346.1L1066.9 335.8 1077.9 328.5C1078.8 328.2 1079.1 327.7 1079.4 327.1 1080 326 1079.7 325.1 1079.4 324.2 1078.3 322.2 1076.3 321.9 1074.9 323.3L1060.1 332.2 1044.8 324.2 1074.6 305.8C1074.9 305.3 1075.2 304.7 1075.5 304.1 1076.1 303 1075.8 302.1 1075.5 301.3 1074.4 299.2 1072.4 298.9 1071 300.3L1038.6 320.9 1014.7 308.5 1041.9 295.2 1013.7 284.2 1036.3 270 1070.3 287.7C1072 288.6 1074.1 287.5 1074.7 286.4 1075.6 284.7 1075 282.9 1073.3 282L1042.7 266.1 1057.2 256.3 1072.5 264.3C1074.2 265.2 1075.9 264.6 1076.8 262.9S1077.1 259.5 1075.4 258.6L1063.5 252.4 1082.1 240.4C1082.9 240.1 1083.2 239.6 1083.5 239 1083.8 238.4 1083.8 237 1083 235.8 1082.2 234.7 1080.5 233.8 1079 235.2ZM1026.4 295.8L1004.2 306.6 1008 331 987.1 317.2 968.2 332.6 969.5 308 946.8 299 969 288.2 965.1 263.8 985.5 277.4 1005 262.2 1003.1 286.5 1026.4 295.8Z" fill="rgba(51, 121, 194, 0.58)"></path><path d="M1340.9 248.5L1380.5 269.3 1385 285 1371.7 277.9C1370.4 276.8 1368.9 277.6 1367.7 278.9 1367.4 280.1 1367.8 282 1369 282.4L1387.2 292.4 1392.1 307.7 1376.5 303.9 1365.6 286.1C1365.6 286.1 1365.2 285.7 1365.2 285.7 1364.4 284.9 1362.8 285 1361.6 285.4 1360.5 286.6 1360.1 287.8 1361 289.4L1368.9 302.2 1353.4 298.4 1329.5 260.8C1329.5 260.8 1329.4 260 1329.4 260 1328.6 259.2 1327 259.3 1325.9 259.7 1324.3 260.6 1324 262.6 1325.2 263.7L1345.8 296.7 1326.6 292.6 1317.4 277.9C1317.4 277.9 1317.4 277.9 1317 277.5 1316.1 276.7 1314.9 276.4 1313.8 276.8 1312.6 278 1311.9 279.6 1312.7 281.2L1319 290.9 1305 287.8C1303.4 287.1 1302.3 288.3 1301.9 289.5 1301.2 291.1 1302 292.7 1304 293L1317.6 296.5 1307.9 302C1306.8 303.2 1306 304.8 1307.3 305.9 1308.1 307.5 1309.3 307.9 1310.9 307L1325.6 297.8 1344.4 302.3 1311 323.2C1309.9 323.7 1309.5 325.7 1310.4 327.2 1311.2 328 1312.8 328.7 1314.4 327.9L1352 304 1367.6 307.8 1354.8 315.8C1353.2 316.6 1353.3 318.2 1354.1 319.8 1354.5 320.9 1356.5 321.3 1357.7 320.8L1375.1 309.5 1391.1 312.9 1380 324.8 1359.5 325.5C1357.9 325.6 1356.7 326.8 1356.8 328.4 1356.4 329.6 1358.1 331.1 1359.7 331L1374.7 330.5 1363.6 342.4 1318.9 343.6C1317.3 343.6 1316.2 344.9 1316.2 346.4 1316.3 348 1317.5 349.2 1319.1 349.1L1358.3 348.1 1345.3 362.1 1327.9 362.7C1326.3 362.7 1325.2 364 1325.2 365.5 1325.3 367.1 1326.5 368.3 1328.1 368.2L1339.6 368.2 1330 378.4C1328.9 379.7 1328.9 381.3 1330.2 382.4 1331.4 383.6 1333 383.5 1334.1 382.3L1343.7 372 1344 383.1C1344.1 384.7 1345.3 385.8 1346.9 385.8S1349.6 384.5 1349.6 382.9L1349 366.3 1362.4 352 1363.7 390.7C1363.8 392.3 1365 393.5 1366.6 393.4 1368.2 393.4 1369.3 392.1 1369.3 390.5L1367.7 346.2 1378.8 334.3 1379.3 349.4C1379.4 351 1380.6 352.1 1382.2 352.1 1383.8 352 1384.9 350.8 1384.9 349.2L1384.1 328.6 1394.8 317.1 1399.3 332 1389.7 350.6C1389.3 351.8 1389.8 353.8 1391 354.1 1392.6 354.9 1393.8 354.4 1394.9 353.2L1402 339.9 1406.4 354.8 1385.6 394.3C1384.9 395.9 1385.4 397.1 1386.6 398.3 1388.2 399 1389.7 398.1 1390.5 397.3L1409.1 362.6 1414.5 381.4 1406.7 396.4C1405.6 397.6 1406.4 399.1 1407.7 400.3 1408.9 400.6 1410.8 400.2 1411.6 398.6L1416.8 388.9 1421.2 402.2C1421.2 403.8 1422.9 404.5 1424.8 404 1426 403.6 1426.7 402 1426.3 400.8L1422.2 387.1 1432.3 392.7C1434 393.4 1435.5 392.6 1435.9 391.4 1437 390.1 1436.6 389 1435.8 388.2 1435.3 387.8 1435.3 387.8 1434.9 387.4L1420 379.6 1414.6 360.8 1448.9 379C1450.1 380.2 1451.7 379.3 1452.8 378.1 1453.2 376.9 1452.8 375.7 1451.9 375 1451.5 374.6 1451.5 374.6 1451.5 374.6L1411.9 353 1407.4 338.1 1420.8 345.2C1422.4 345.9 1423.6 345.4 1424.7 344.2 1425.1 343 1425 341.4 1424.2 340.7 1423.8 340.3 1423.8 340.3 1423.4 339.9L1404.8 330.3 1400.3 315.4 1415.5 318.8 1426.8 336.2C1427.6 337.8 1429.6 338.1 1430.8 337.7 1432 336.4 1432.7 334.8 1431.5 333.7L1423.5 320.9 1439 323.9 1463 362.3C1463.4 363.5 1465.4 363.8 1466.6 363.4 1467.7 362.1 1468.5 360.5 1467.6 359L1447 326 1465.8 330.5 1474.6 344.8C1475.5 346.4 1477.5 346.7 1478.6 345.5 1479.8 345.1 1480.5 343.4 1479.7 341.9L1473.4 332.2 1487.4 335.3C1488.6 335.6 1490.1 334.8 1490.9 333.2 1490.9 332.4 1490.4 331.2 1489.6 330.5 1489.6 330.5 1489.2 330.1 1488.8 329.7L1474.8 326.6 1484.5 320.3C1485.7 319.9 1486 317.9 1485.5 316.7 1485.1 316.3 1485.1 316.3 1485.1 316.3 1483.9 315.2 1482.3 315.3 1481.6 316.1L1467.2 324.9 1448.1 320.8 1481.4 299.8C1482.5 298.6 1482.9 297.4 1482 295.8 1482 295.8 1481.6 295.5 1481.6 295.5 1480.8 294.7 1479.6 294.3 1478.1 295.2L1440.1 318.7 1424.9 315.3 1437.7 307.3C1438.8 306.1 1439.6 304.5 1438.3 303.3 1438.7 302.9 1438.3 302.5 1438.3 302.5 1437.5 301.8 1435.9 301.8 1434.7 302.3L1417.3 313.6 1401.7 309.8 1412.4 298.3 1433 297.6C1434.6 297.5 1436.1 295.9 1436 294.3 1435.6 293.1 1434.4 292 1433.2 291.6L1417.7 292.6 1428.8 280.7 1473.1 279.1C1474.7 279.1 1475.9 277.8 1475.8 276.3 1475.8 274.7 1474.5 273.5 1472.9 273.6L1434.2 274.9 1447.5 260.6 1464.1 260C1465.7 260 1466.9 258.7 1466.8 257.2S1465.5 254.4 1463.9 254.5L1452.9 254.9 1462.4 244.6C1463.6 243.4 1463.5 241.8 1462.3 240.7 1461 239.5 1459.5 239.6 1458.3 240.8L1448.8 251.1 1448 239.6C1447.9 238.8 1447.9 238 1447.5 237.6 1447.1 237.2 1445.9 236.9 1445.1 236.9 1443.5 237 1442.4 238.2 1442.4 239.8L1443.4 256.8 1430.1 271.1 1428.3 232C1428.3 231.2 1428.2 230.4 1427.8 230 1427.4 229.6 1426.2 229.3 1425.4 229.3 1423.8 229.3 1422.7 230.6 1422.8 232.2L1424.7 276.9 1413.6 288.7 1413.5 273.3C1413.5 272.5 1412.6 271.7 1412.2 271.4 1411.8 271 1411.4 270.6 1410.6 270.6 1409 270.7 1407.5 272.3 1408 273.5L1408.3 294.5 1397.6 305.9 1392.7 290.7 1402.8 272.5C1403.1 271.3 1403.1 269.7 1402.2 268.9 1401.8 268.6 1401.8 268.6 1401.5 269 1400.2 267.8 1398.3 268.3 1397.5 269.9L1390.5 283.2 1385.6 267.9 1407.2 228.3C1407.5 227.1 1407.1 226 1406.3 225.2 1405.9 224.8 1405.9 224.8 1405.9 224.8 1404.2 224.1 1402.7 224.1 1401.9 225.8L1383.3 260.5 1377.9 241.7 1385.7 226.7C1386.4 225.1 1386 223.9 1385.2 223.2 1385.2 223.2 1384.8 222.8 1384.8 222.8 1383.2 222.1 1381.6 222.9 1380.9 223.7L1375.7 234.2 1371.6 220.5C1371.2 220.1 1370.8 219.7 1370.4 219.3 1370 219 1368.8 218.6 1368 218.6 1366.4 219.5 1365.3 220.7 1366.1 222.3L1370.2 236 1360.1 230.4C1358.5 229.7 1356.9 230.5 1356.2 231.3 1355.4 232.9 1356.3 234.5 1357.5 235.6L1372.4 243.4 1378.2 261.9 1343.9 243.6C1342.3 242.9 1340.3 243.4 1340 244.6 1339.2 246.2 1339.3 247.8 1340.9 248.5Z" fill="rgba(51, 121, 194, 0.58)"></path><path d="M109.8 281.1L127.4 309.2 120.5 338 99 317.7 98.3 284.5C98.3 284.5 98.2 284.1 98.2 284.1 98 283.4 97 282.8 96.1 282.7 94.8 282.6 93.9 283.7 94.3 284.9L95 313.9 84.5 304.1 84.1 291.3C84.1 291.3 83.9 290.9 83.9 290.9 83.7 290.1 82.7 289.6 81.8 289.4 80.6 289.4 79.7 290.5 80 291.6L80.1 300.4 72.5 293C71.9 292.4 70.2 292.5 69.6 293.1 68.5 293.8 69 295.3 69.6 296L77.2 303.3 68.5 303.4C67.2 303.4 66.3 304.5 66.6 305.6 66.6 306.9 67.7 307.8 68.9 307.5L81.7 307 91.7 316.9 62.7 317.7C61.5 317.6 60.5 318.7 60.9 319.9 60.8 321.1 61.9 322.1 63.1 321.7L96.3 321 117.8 341.3 89 349.9 59.7 334C58.7 333.5 57.5 333.8 57 334.8 56.4 335.8 56.8 337 57.8 337.5L83.7 351.5 69.9 355.6 58.9 349.7C57.9 349.1 56.8 349.5 56.2 350.5 55.7 351.5 56 352.6 57 353.2L64.5 357.2 53.8 360.4C52.5 360.4 52.1 361.7 52.4 362.9 52.7 364 53.7 364.6 54.9 364.2L64.9 361.3 60.8 368.7C60.3 369.7 60.6 370.9 61.6 371.4S63.8 371.6 64.3 370.6L70.2 359.7 84 355.6 70 381.4C69.5 382.4 69.8 383.6 70.8 384.1 71.8 384.6 73 384.3 73.5 383.3L89.4 354 117.8 345.5 110.9 374.3 83.4 391.2C82.4 391.9 82.3 393.2 82.7 394.4 83.4 395.4 84.6 395.4 85.8 395.1L110.5 379.8 107.1 393.8 96.1 400.4C95.1 401.1 95.1 402.4 95.4 403.5 96.1 404.5 97.4 404.6 98.2 404.3L105.5 399.6 103.2 410C103 410.8 103.5 412.4 104.7 412.4 106 412.4 107.1 412.1 107.2 410.8L109.5 400.5 114.2 407.9C115 408.9 116.2 409 117 408.7 117.7 408.1 118.2 407.1 118 406.4 118 406.4 117.8 406 117.8 406L111.2 395 114.6 381.1 129.9 405.7C130.6 406.8 131.9 406.8 132.6 406.6 133.3 406 133.8 405 133.6 404.2 133.6 404.2 133.5 403.8 133.5 403.8L115.9 375.7 122.8 346.9 144.3 367.2 145 400.4C144.9 401.7 146.1 402.6 147.2 402.3 148.5 402.3 149.4 401.2 149 400L148.3 371 158.8 380.9 159.2 393.7C159.2 394.9 160.3 395.8 161.5 395.5 162.7 395.5 163.7 394.4 163.3 393.3L163.2 384.5 170.8 391.9C171.4 392.5 173.1 392.4 173.7 391.8 174.4 391.2 174.5 390.3 174.3 389.6 174.2 389.2 174.1 388.8 173.6 388.5L166 381.2 174.7 381.1C176 381.2 176.9 380 176.6 378.9 176.6 378.9 176.4 378.5 176.4 378.5 176.2 377.7 175.2 377.2 174.3 377L161.5 377.5 151.1 367.7 180.1 367C181.4 367 182.3 365.9 181.9 364.8 181.9 364.8 181.8 364.4 181.8 364.4 181.6 363.6 180.6 363.1 179.7 362.9L146.5 363.6 125 343.3 153.4 334.9 182.8 350.7C183.8 351.3 184.9 350.9 185.5 349.9 186 348.9 185.6 347.8 184.7 347.3L159.2 333.2 173 329 183.9 335C184.9 335.5 186.1 335.2 186.6 334.2S186.8 332 185.8 331.5L178.3 327.4 188.3 324.5C189.4 324.1 190 323.1 189.6 322 189.3 320.8 188.3 320.3 187.2 320.6L177.2 323.6 181.2 316.1C181.5 315.6 181.8 315.1 181.5 314.4S180.8 313.3 180.3 313.1C179.3 312.5 178.2 312.9 177.6 313.9L171.7 324.8 157.9 328.9 171.9 303.1C172.2 302.6 172.4 302.1 172.2 301.3 172.1 300.9 171.5 300.3 171 300 170 299.5 168.8 299.8 168.3 300.8L152.4 330.2 124.1 338.6 130.9 309.8 159.1 292.3C159.7 291.7 160.3 290.7 160 289.9 160 289.9 159.9 289.5 159.9 289.5 159.2 288.5 157.9 288.4 157.2 288.7L132.5 304 135.9 290 146.8 283.4C147.5 282.8 148 281.8 147.8 281 147.8 281 147.7 280.6 147.7 280.6 147 279.6 145.7 279.6 144.9 279.8L137.6 284.5 139.9 274.2C139.8 273.8 140.1 273.3 140 272.9 139.7 272.2 139.1 271.5 138.2 271.4 137 271.3 135.8 271.7 135.8 272.9L133.4 283.2 128.7 275.9C128 274.8 126.7 274.8 126 275 124.9 275.7 124.9 277 125.1 277.8L131.7 288.7 128.4 302.7 113.1 278C112.4 277 111.1 276.9 110.3 277.2 109.5 278.7 109.1 280 109.8 281.1Z" fill="rgba(51, 121, 194, 0.58)"></path><path d="M812.1 535.3L761.6 542.4 746.9 530.9 764 528.5C765.9 528.8 766.7 527 767 525 766.5 523.7 764.8 522.2 763.4 522.7L739.8 525.5 725.1 514.6 742.1 507.7 764.1 516.9C764.1 516.9 764.8 517 764.8 517 766 517.2 767.5 516.1 768.3 514.9 768.5 513 768 511.6 766.2 510.8L750.3 504.2 767.3 497.3 814.6 516.3C814.6 516.3 815.1 517 815.1 517 816.4 517.1 817.8 516 818.6 514.8 819.5 513 818.5 510.9 816.5 510.7L775.5 493.9 796 484.9 814.4 492.4C814.4 492.4 814.4 492.4 815 492.4 816.3 492.6 817.6 492.1 818.4 490.9 818.7 489 818.3 487 816.4 486.2L804.1 481.4 819.2 474.9C821.1 474.5 821.4 472.6 820.9 471.3 820.5 469.3 818.7 468.4 816.6 469.4L801.7 475.3 807 463.7C807.3 461.8 806.9 459.8 805 459.6 803.2 458.7 801.8 459.1 800.9 461L793.4 479.4 773 487.7 789.9 446C790.7 444.8 789.7 442.8 787.9 441.9 786.6 441.7 784.6 442.1 783.7 444L764.8 491.2 747.8 498.1 754.4 482.2C755.2 480.3 754.1 478.9 752.3 478 751.1 477.2 749.1 478.3 748.3 479.4L739.6 501.6 722.6 509.1 724.9 490.7 743.5 476.3C744.9 475.2 745.2 473.2 744.1 471.8 743.6 470.5 741.1 470.1 739.6 471.3L726 481.8 728.4 463.4 769.1 432.4C770.5 431.3 770.7 429.4 769.6 428 768.5 426.5 766.6 426.3 765.2 427.4L729.5 454.5 732.2 432.9 748 420.7C749.4 419.6 749.7 417.7 748.5 416.3 747.4 414.8 745.5 414.6 744.1 415.7L733.5 423.4 735.5 407.5C735.7 405.6 734.6 404.2 732.7 403.9 730.8 403.7 729.4 404.8 729.1 406.7L727.1 422.6 719.3 412.5C718.2 411.1 716.3 410.9 714.9 412S713.2 415 714.3 416.4L726 431.5 723.2 453.7 696 418.6C694.9 417.2 693 416.9 691.5 418 690.1 419.2 689.9 421.1 691 422.5L722 462.6 719.7 481 709.2 467.4C708 465.9 706.1 465.7 704.7 466.8 703.3 467.9 703 469.8 704.1 471.3L718.6 489.9 716.3 507.6 702.2 496.8 698.7 473.2C698.3 471.8 696.5 470.3 695.2 470.8 693.2 471.2 692.4 472.3 692.1 474.3L694.5 491.3 680.4 480.5 673.3 429.9C672.9 427.9 671.7 427.1 669.8 426.9 667.8 427.3 666.9 429.1 666.8 430.4L672.7 475 655.1 461.2 652.4 442.1C652.6 440.2 650.8 439.3 648.9 439.1 647.5 439.6 646 441.3 646.4 443.3L648.1 455.7 635.1 446.4C633.9 444.9 632 445.3 630.4 447.1 629.6 448.2 630 450.2 631.2 451L644.1 461.1 631 462.6C629.1 463 628.2 464.8 628.7 466.2 628.4 468.1 629.6 468.9 630.9 469 631.5 469.1 631.5 469.1 632.1 469.2L651.2 466.5 668.8 480.3 624.8 486.3C622.9 486.1 622 487.9 621.8 489.8 622.3 491.2 623.4 492 624.7 492.1 625.4 492.2 625.4 492.2 625.4 492.2L676.5 485.8 690.6 496.6 673.5 499C671.5 499.4 670.7 500.6 670.5 502.5 671 503.8 672.1 505.2 673.4 505.4 674 505.5 674 505.5 674.6 505.6L698.3 502.1 712.4 513 696 519.9 673.9 511.3C672.1 510.4 670 511.4 669.2 512.6 669 514.5 669.4 516.5 671.3 516.8L687.2 523.3 670.8 530.9 622.9 511.3C621.7 510.5 619.7 511.5 618.9 512.7 618.6 514.6 619 516.6 620.9 517.5L661.9 534.3 641.5 542.7 623.8 535.2C621.9 534.4 619.9 535.4 619.6 537.3 618.8 538.5 619.2 540.5 621 541.3L633.3 546.1 618.3 552.6C617 553.1 616.1 554.9 616.5 556.9 617 557.6 618.2 558.4 619.5 558.6 619.5 558.6 620.1 558.6 620.8 558.7L635.8 552.2 631 564.5C630.2 565.7 631.2 567.8 632.4 568.6 633.1 568.7 633.1 568.7 633.1 568.7 635 568.9 636.4 567.8 636.6 566.5L644 548.8 664.5 539.8 647.6 581.5C647.3 583.4 647.8 584.7 649.6 585.6 649.6 585.6 650.3 585.7 650.3 585.7 651.5 585.9 652.9 585.4 653.7 583.6L673.3 536.4 689.7 529.4 683.1 545.4C682.9 547.3 683.3 549.2 685.2 549.5 685.1 550.1 685.7 550.2 685.7 550.2 687 550.4 688.4 549.3 689.2 548.1L697.8 525.9 714.8 519.1 712.6 536.8 694 551.3C692.5 552.4 692.2 554.9 693.3 556.3 694.5 557.1 696.4 557.4 697.8 556.9L711.5 545.7 709.1 564.1 669 595.2C667.6 596.3 667.4 598.2 668.5 599.6 669.6 601.1 671.5 601.3 672.9 600.2L708 573 705.2 595.3 690.1 606.9C688.7 608 688.5 609.9 689.6 611.3S692.6 613 694 611.9L704 604.1 702 620C701.8 621.9 702.9 623.4 704.8 623.6 706.7 623.8 708.1 622.7 708.4 620.8L710.4 605 718.8 615C719.3 615.8 719.9 616.5 720.5 616.6 721.2 616.6 722.5 616.2 723.2 615.6 724.7 614.5 724.9 612.6 723.8 611.2L711.5 596.1 714.3 573.8 742.1 609C742.7 609.7 743.2 610.4 743.9 610.5 744.5 610.6 745.9 610.1 746.6 609.5 748 608.4 748.2 606.5 747.1 605.1L715.5 565 717.8 546.5 728.3 560.8C728.8 561.5 730.1 561.6 730.7 561.7 731.3 561.8 732 561.9 732.7 561.3 734.1 560.2 734.5 557.7 733.3 556.9L718.9 537.7 721.2 519.9 735.9 530.8 738.7 554.4C739.2 555.7 740.3 557.1 741.6 557.3 742.2 557.4 742.2 557.4 742.3 556.8 744.2 557 745.7 555.2 745.3 553.3L743 536.2 757.7 547.1 764.1 598.2C764.6 599.6 765.8 600.4 767.1 600.5 767.7 600.6 767.7 600.6 767.7 600.6 769.7 600.2 771.1 599.1 770.7 597.1L764.8 552.5 782.4 566.4 785.1 585.4C785.5 587.4 786.7 588.2 788 588.4 788 588.4 788.6 588.4 788.6 588.4 790.6 588 791.5 586.2 791.6 585L789.4 571.8 802.4 581.8C803 581.9 803.6 582 804.3 582 804.9 582.1 806.2 581.6 807 581.1 807.8 579.3 808.1 577.4 806.3 576.5L793.3 566.5 806.4 564.9C808.4 564.5 809.3 562.7 809.5 561.4 809.1 559.4 807.2 558.5 805.3 558.3L786.3 561 768.6 547.8 812.6 541.8C814.6 541.4 816.1 539.7 815.6 538.3 815.2 536.3 814.1 534.9 812.1 535.3Z" fill="rgba(51, 121, 194, 0.58)"></path><path d="M159.3 111.8L149.5 113.8 151.4 107.3C151.7 106.7 151.2 105.8 150.4 105.3 149.5 105.2 148.5 105.6 148.3 106.3L145.6 114.8 136.4 116.6 142 99.4C142.3 98.3 141.9 97.4 141 97.3 140.1 96.8 139.2 97.2 138.9 98.4L132.8 117.3 124.5 119.2 111.4 104.7 113.6 97.6 134.4 93.4C134.6 93.2 134.9 92.9 135.1 92.7 135.4 92.5 135.6 91.8 135.6 91.4 135.5 90.3 134.6 89.8 133.7 90.2L114.7 94 117.6 85.3 127.2 83.1C127.4 83.3 127.7 83.1 127.9 82.9 128.4 82.4 128.6 81.8 128.4 81.1 128.2 80.4 127.4 79.9 126.5 79.8L118.7 81.7 122.1 70.8C122.4 70.1 122 69.2 121.1 68.7 120.2 68.7 119.3 69.1 119 69.7L115.8 80 111.3 75C110.6 74.3 109.5 74.5 109 74.9 108.3 75.6 108 76.7 108.7 77.4L114.5 83.8 111.6 92.5 99.5 79.2C98.9 78.5 98 78.5 97.3 79.1 96.6 79.8 96.5 80.7 97.2 81.4L110.5 96.1 108.3 103.7 89.1 107.7 84.1 102.3 90.3 82.8C90.8 82 90.2 80.8 89.3 80.8 88.4 80.3 87.7 80.9 87.2 81.8L81.6 99.4 75.3 92.5 78.2 83.8C78.5 83.2 77.9 82 77.2 81.8S75.4 82.1 74.9 83L72.7 89.7 65.2 81.4C64.6 80.7 63.4 80.9 62.7 81.5 62.2 81.9 62 83 62.6 83.8L70.1 92.1 63 93.7C62.3 93.9 61.6 94.6 61.8 95.7 62 96.4 63.1 97.2 63.8 97L72.7 94.9 78.9 101.8 60.9 105.7C59.9 106.1 59.2 106.7 59.4 107.8 59.6 108.5 60.7 109.3 61.4 109.1L81.5 104.6 86.5 110.1 80.6 128.8 72.8 130.2 59.5 115.6C58.8 114.8 57.9 114.8 57.2 115.4 56.5 116.1 56.2 117.2 56.9 117.9L68.9 131.2 60 133.2 54.2 126.8C53.5 126.1 52.6 126.1 51.9 126.7 51.2 127.4 51.2 128.3 51.8 129L56.3 134 45.8 136.2C45.1 136.4 44.4 137.5 44.6 138.2 45 139.1 45.6 139.8 46.5 139.4L57.5 137.2 55.1 144.6C55.1 145.5 55.5 146.4 56.1 146.7 56.8 146.9 57.5 146.7 58 146.3 58 146.3 58.2 146.1 58.2 145.6L61.4 136.3 70.3 134.2 64.7 152.7C64.2 153.6 64.6 154.5 65.7 154.8 66.2 154.8 66.6 154.9 67.1 154.4 67.3 154.2 67.6 154 67.8 153.8L74 133.5 81.3 132 94.4 146.5 91.8 154.5 72.3 158.8C71.2 158.9 70.7 159.8 71.1 160.7 71 161.6 71.9 162.1 73.1 162L90.7 158.1 88 167 79.3 168.8C78.6 169 78.1 169.9 78.1 170.8 78.5 171.8 79.1 172.5 80.1 172.1L86.7 170.8 83.7 180.4C83.2 181.3 83.9 182 84.8 182.5 85.2 182.5 85.9 182.3 86.4 181.9 86.4 181.9 86.6 181.7 86.8 181.4L90.1 171.2 95.4 177.1C95.9 177.6 97 177.9 97.7 177.2 98.4 176.6 98.2 175.4 97.8 175L91.1 167.6 93.8 158.7 107 173.1C107.6 173.9 108.7 173.7 109.5 173S110.2 171.5 109.6 170.8L95.2 154.9 97.6 147.5 116.8 143.5 122.4 149.7 116 169.3C115.9 170.2 116.3 171.1 117.2 171.6 117.7 171.6 118.4 171.4 118.8 171 119.1 170.8 119.3 170.6 119.3 170.1L125 152.5 131.2 159.4 128.5 168.3C128.2 169 128.6 169.9 129.5 170.4 130.4 170.4 131.4 170 131.6 169.4L133.8 162.2 140.7 169.8C141.1 170.3 142.4 170.3 142.9 169.9 143.6 169.3 143.7 167.9 143.3 167.4L136.4 159.8 143.5 158.6C143.7 158.4 143.9 158.2 144.2 158 144.6 157.5 144.9 156.9 144.9 156.4 144.5 155.5 143.6 155 142.7 154.9L133.8 157 127.6 150.1 145.7 146.3C146.8 146.1 147.3 145.2 147.1 144.5 146.9 143.4 146 142.9 145.1 142.8L125 147.3 119.4 141.1 125.3 122.4 132.9 120.7 147.3 136.6C147.9 137.3 148.8 137.3 149.5 136.7 150.2 136.1 150.3 135.2 149.6 134.4L136.5 120 145.7 118.2 152.3 125.5C152.8 126 154.1 126.1 154.8 125.4 155.5 124.8 155.4 123.6 154.9 123.1L149.6 117.2 160.1 115C160.3 114.8 160.3 114.8 160.6 114.6 161 114.2 161.3 113.5 161.3 113 160.9 112.1 160 111.6 159.3 111.8ZM116.8 138.3L116 140.3 114.2 140.6 98.6 144 96.8 144.3 95.5 142.9 85 131.3 83.7 129.9 84.2 128.1 89.1 112.9 89.6 111.1 91.7 110.5 107 107.4 109.1 106.9 110.3 108.3 120.9 119.9 122.2 121.3 121.4 123.3 116.8 138.3Z" fill="rgba(51, 121, 194, 0.58)"></path><path d="M960.3 536.6L956.1 511.4 961.7 504 963.1 512.5C963 513.4 963.9 513.9 964.9 514 965.6 513.7 966.3 512.8 966 512.1L964.4 500.4 969.6 492.9 973.3 501.3 968.9 512.4C968.9 512.4 968.9 512.8 968.9 512.8 968.8 513.4 969.4 514.1 970 514.5 970.9 514.6 971.6 514.3 972 513.4L975.1 505.4 978.7 513.8 969.9 537.6C969.9 537.6 969.5 537.9 969.5 537.9 969.4 538.6 970 539.3 970.6 539.6 971.5 540.1 972.6 539.5 972.7 538.6L980.6 517.8 985.3 528 981.8 537.3C981.8 537.3 981.8 537.3 981.8 537.6 981.7 538.2 981.9 538.9 982.6 539.3 983.5 539.4 984.5 539.1 984.9 538.2L987.2 532 990.6 539.5C990.8 540.4 991.8 540.5 992.4 540.3 993.4 540.1 993.8 539.1 993.3 538.1L990.2 530.7 996 533.3C997 533.4 998 533.1 998.1 532.2 998.5 531.3 998.2 530.6 997.3 530.2L988 526.6 983.6 516.5 1004.7 524.5C1005.3 524.9 1006.3 524.3 1006.7 523.4 1006.8 522.8 1006.6 521.8 1005.6 521.4L981.8 512.5 978.1 504.1 986.2 507.1C987.1 507.6 987.8 507 988.2 506.1 988.6 505.5 988.1 504.4 987.5 504.1L976.3 500 972.4 491.6 981.6 492.5 989 501.7C989.6 502.4 990.5 502.5 991.2 501.9 991.9 501.6 992 500.4 991.5 499.7L986 493 995.3 493.9 1011.2 513.9C1011.8 514.6 1012.8 514.7 1013.5 514.1 1014.2 513.6 1014.3 512.6 1013.7 511.9L999.7 494.4 1010.6 495.5 1016.8 503.2C1017.4 503.9 1018.4 504 1019.1 503.5 1019.8 502.9 1019.9 501.9 1019.3 501.2L1015.3 496 1023.3 496.8C1024.2 496.9 1024.9 496.3 1025 495.4 1025.1 494.4 1024.6 493.7 1023.6 493.6L1015.7 492.8 1020.6 488.8C1021.3 488.3 1021.4 487.3 1020.8 486.6S1019.3 485.8 1018.6 486.4L1011.2 492.4 1000.1 491.2 1017.3 477.2C1018 476.6 1018.1 475.7 1017.5 475 1016.9 474.3 1016 474.2 1015.3 474.8L995.6 490.7 986.4 489.8 993 484.4C993.7 483.8 993.8 482.8 993.3 482.1 992.7 481.4 991.7 481.3 991 481.9L981.9 489.3 973 488.4 978.2 481.2 990 479.2C990.7 479 991.4 478.1 991.2 477.4 991 476.4 990.4 476.1 989.4 476L980.9 477.3 986.1 470.2 1011.3 466C1012.3 465.8 1012.7 465.2 1012.8 464.2 1012.6 463.2 1011.7 462.8 1011 462.7L988.8 466.2 995.5 457.3 1005 455.7C1006 455.8 1006.4 454.9 1006.5 453.9 1006.2 453.2 1005.3 452.5 1004.3 452.7L998.1 453.7 1002.7 447.1C1003.4 446.5 1003.2 445.5 1002.3 444.8 1001.7 444.4 1000.7 444.6 1000.3 445.2L995.4 451.8 994.5 445.3C994.3 444.3 993.4 443.9 992.7 444.1 991.7 444 991.4 444.6 991.3 445.3 991.3 445.6 991.3 445.6 991.2 445.9L992.8 455.4 986.1 464.4 982.6 442.4C982.7 441.5 981.7 441.1 980.8 441 980.1 441.2 979.7 441.8 979.7 442.5 979.6 442.8 979.6 442.8 979.6 442.8L983.4 468.3 978.2 475.4 976.8 466.9C976.6 465.9 976 465.6 975 465.5 974.4 465.7 973.7 466.3 973.6 466.9 973.6 467.2 973.6 467.2 973.5 467.6L975.5 479.4 970.3 486.5 966.6 478.4 970.7 467.3C971.1 466.3 970.6 465.3 970 464.9 969 464.8 968 465.1 967.9 466L964.8 474.1 960.8 465.9 970.1 441.8C970.5 441.2 969.9 440.2 969.3 439.8 968.4 439.7 967.4 439.9 967 440.8L959 461.6 954.6 451.5 958.1 442.5C958.5 441.6 958 440.5 957 440.4 956.4 440.1 955.4 440.3 955 441.2L952.8 447.4 949.4 440C949.1 439.3 948.2 438.9 947.2 439.1 946.9 439.4 946.5 440 946.4 440.6 946.4 440.6 946.4 441 946.3 441.3L949.8 448.7 943.6 446.5C942.9 446.1 941.9 446.6 941.5 447.2 941.5 447.5 941.5 447.5 941.5 447.5 941.4 448.5 942 449.2 942.6 449.3L951.6 452.8 956.3 462.9 935.3 454.9C934.3 454.8 933.7 455.1 933.2 456 933.2 456 933.2 456.3 933.2 456.3 933.1 457 933.4 457.6 934.3 458L958.1 467.3 961.8 475.4 953.8 472.3C952.8 472.2 951.8 472.4 951.7 473.4 951.4 473.3 951.4 473.6 951.4 473.6 951.3 474.3 951.9 475 952.5 475.4L963.6 479.4 967.3 487.8 958.4 486.9 950.9 477.8C950.4 477.1 949.1 476.9 948.4 477.5 948 478.1 947.9 479.1 948.2 479.7L953.9 486.4 944.7 485.5 928.7 465.8C928.1 465.1 927.2 465 926.5 465.6 925.8 466.2 925.7 467.1 926.2 467.8L940.2 485 929.1 483.9 923.1 476.5C922.5 475.8 921.6 475.7 920.8 476.3S920 477.8 920.6 478.5L924.6 483.4 916.7 482.6C915.7 482.5 915 483.1 914.9 484 914.8 485 915.4 485.7 916.3 485.8L924.3 486.6 919.3 490.9C919 491.2 918.6 491.5 918.6 491.8 918.6 492.1 918.8 492.8 919.1 493.2 919.7 493.9 920.6 494 921.3 493.4L928.7 487.1 939.9 488.2 922.6 502.5C922.3 502.8 921.9 503.1 921.9 503.4 921.9 503.7 922.1 504.4 922.4 504.8 923 505.5 923.9 505.6 924.6 505L944.3 488.7 953.6 489.6 946.6 495C946.2 495.3 946.2 495.9 946.1 496.3 946.1 496.6 946.1 496.9 946.4 497.2 946.9 498 948.2 498.1 948.6 497.5L958 490.1 966.9 491 961.7 498.5 949.9 500.2C949.2 500.4 948.5 501 948.5 501.7 948.4 502 948.4 502 948.8 502 948.7 503 949.5 503.7 950.5 503.5L959 502.1 953.8 509.6 928.3 513.4C927.6 513.7 927.2 514.3 927.2 514.9 927.1 515.2 927.1 515.2 927.1 515.2 927.3 516.2 927.9 516.9 928.9 516.7L951.1 513.2 944.4 522.1 934.9 523.7C933.9 524 933.6 524.6 933.5 525.2 933.5 525.2 933.5 525.5 933.5 525.5 933.7 526.5 934.6 526.9 935.2 527L941.8 525.7 936.9 532.3C936.9 532.6 936.9 532.9 936.8 533.3 936.8 533.6 937.1 534.3 937.4 534.6 938.3 535 939.2 535.1 939.6 534.2L944.5 527.6 945.4 534.2C945.7 535.1 946.6 535.6 947.2 535.6 948.2 535.4 948.6 534.5 948.7 533.5L947.1 524 953.5 515 957.1 537C957.3 537.9 958.2 538.7 958.8 538.4 959.8 538.2 960.5 537.6 960.3 536.6Z" fill="rgba(51, 121, 194, 0.58)"></path><path d="M236.5 545.2L247.6 521.1 269.9 513.1 265.8 536.4 243.9 551.4C243.9 551.4 243.7 551.7 243.7 551.7 243.3 552.2 243.3 553.1 243.6 553.7 244.2 554.6 245.3 554.7 245.9 554L265 540.7 263 552 254.7 558C254.7 558 254.5 558.2 254.5 558.2 254 558.7 254.1 559.6 254.4 560.3 254.9 561.1 256.1 561.3 256.7 560.5L262.5 556.6 260.9 564.9C260.8 565.6 261.5 566.7 262.2 566.9 263.2 567.2 264 566.3 264.2 565.6L265.7 557.3 269.6 563.1C270.2 563.9 271.3 564.1 271.9 563.3 272.8 562.8 272.9 561.6 272.2 561L266.2 552.7 268.5 541.6 281.7 560.7C282.2 561.5 283.4 561.7 284 560.9 284.9 560.4 285 559.2 284.2 558.6L269.2 536.8 273.3 513.5 291.7 528.9 294 555.5C294 556.4 294.8 557 295.7 557 296.6 556.9 297.2 556.1 297.1 555.2L295.1 531.8 303.9 539.2 304.8 549.1C304.9 550 305.6 550.7 306.5 550.6 307.4 550.5 308 549.8 307.9 548.9L307.4 542.1 314.2 547.9C314.7 548.7 315.8 548.4 316.5 547.7 317.1 546.9 317 546 316.3 545.4L309.9 540.1 316.7 539.5C317.6 539.4 318.2 538.7 318.1 537.8S317.3 536.2 316.4 536.3L306.5 537.2 297.7 529.8 321.1 527.7C322 527.7 322.6 526.9 322.5 526 322.5 525.1 321.7 524.5 320.8 524.6L294.2 526.9 276.1 511.6 298.4 503.6 321.8 514.5C322.7 514.9 323.6 514.4 324.2 513.6 324.6 512.7 324 511.8 323.3 511.2L302.3 501.4 313.1 497.5 322.3 502C323.2 502.3 324.1 501.8 324.7 501.1 325.1 500.1 324.6 499.3 324.1 498.9L317.7 496 325.6 493.1C326.3 492.8 327.1 491.8 326.6 490.9 326 490.1 325.3 489.5 324.4 490L316.5 492.9 319.4 486.6C319.7 485.6 319.2 484.8 318.7 484.3 318 484.2 317.1 484.3 316.7 484.7 316.7 484.7 316.5 485 316.5 485L312.1 494.2 301.3 498.1 311.1 477.1C311.4 476.1 310.9 475.2 310.4 474.8 309.7 474.7 308.8 474.7 308.4 475.2 308.4 475.2 308.2 475.5 308.2 475.5L297.1 499.6 274.9 507.6 279 484.4 300.9 469.3C301.7 468.8 301.8 467.6 301.1 467 300.6 466.1 299.4 466 298.8 466.8L279.7 480 281.7 468.7 290.1 462.7C290.9 462.2 291.1 461.1 290.3 460.4 289.8 459.6 288.7 459.4 288 460.2L282.2 464.1 283.8 455.8C284 455.1 283.2 454 282.5 453.8 281.8 453.7 281.1 454 280.7 454.5 280.5 454.7 280.3 454.9 280.4 455.4L278.8 463.7 274.9 457.9C274.4 457 273.2 456.9 272.6 457.7 272.6 457.7 272.4 457.9 272.4 457.9 272 458.4 272.1 459.3 272.3 459.9L278.3 468.3 276.3 479.6 263.1 460.5C262.6 459.7 261.4 459.5 260.8 460.3 260.8 460.3 260.6 460.5 260.6 460.5 260.2 461 260.2 461.9 260.5 462.6L275.6 484.4 271.5 507.7 253.3 492.5 251.1 465.9C251 465 250.2 464.3 249.3 464.4 248.4 464.5 247.8 465.2 247.9 466.1L249.7 489.4 240.9 482 240 472C239.9 471.1 239.2 470.5 238.3 470.6S236.8 471.4 236.8 472.3L237.4 479.1 231.1 473.7C230.3 473.1 229.4 473.2 228.8 473.9 228.2 474.6 228.3 475.5 229 476.2L235.4 481.5 228.6 482.1C228.2 482.1 227.7 482.2 227.3 482.7S226.9 483.6 227 484.1C227 485 227.8 485.6 228.7 485.5L238.6 484.7 247.4 492.1 224 494.1C223.5 494.1 223.1 494.2 222.6 494.7 222.4 494.9 222.3 495.6 222.3 496 222.4 496.9 223.1 497.6 224 497.5L250.6 495.2 268.7 510.4 246.5 518.5 222.4 507.4C221.7 507.2 220.8 507.3 220.4 507.8 220.4 507.8 220.2 508 220.2 508 219.8 509 220.3 509.8 220.8 510.3L241.9 520 231.1 523.9 221.8 519.5C221.1 519.3 220.2 519.4 219.8 519.9 219.8 519.9 219.6 520.1 219.6 520.1 219.2 521.1 219.8 521.9 220.3 522.3L226.6 525.2 218.7 528.2C218.5 528.4 218.1 528.4 217.8 528.7 217.4 529.2 217.3 529.9 217.6 530.5 218.1 531.4 218.8 532 219.7 531.5L227.6 528.5 224.7 534.9C224.4 535.8 224.9 536.7 225.4 537.1 226.3 537.5 227.2 537 227.6 536.5L232 527.2 242.8 523.4 233.1 544.4C232.7 545.3 233.2 546.2 233.7 546.6 235.1 546.5 236.2 546.2 236.5 545.2Z" fill="rgba(51, 121, 194, 0.58)"></path><path d="M1355.8 514.7L1330.6 518.8 1323.1 513.2 1331.6 511.9C1332.6 512 1333 511 1333.1 510.1 1332.8 509.4 1331.9 508.7 1331.3 508.9L1319.5 510.6 1312 505.3 1320.4 501.7 1331.6 506.1C1331.6 506.1 1331.9 506.1 1331.9 506.1 1332.5 506.2 1333.2 505.6 1333.6 505 1333.7 504 1333.4 503.4 1332.5 502.9L1324.5 499.9 1332.9 496.2 1356.7 505.1C1356.7 505.1 1357 505.5 1357 505.5 1357.7 505.6 1358.4 505 1358.8 504.4 1359.2 503.5 1358.6 502.4 1357.7 502.3L1336.9 494.4 1347.1 489.7 1356.4 493.2C1356.4 493.2 1356.4 493.2 1356.7 493.2 1357.3 493.3 1358 493 1358.4 492.4 1358.5 491.5 1358.3 490.5 1357.3 490.1L1351.1 487.8 1358.6 484.4C1359.6 484.2 1359.7 483.2 1359.4 482.6 1359.2 481.6 1358.3 481.2 1357.2 481.7L1349.9 484.8 1352.4 478.9C1352.5 478 1352.3 477 1351.3 476.9 1350.4 476.5 1349.7 476.7 1349.3 477.7L1345.8 486.9 1335.7 491.4 1343.6 470.3C1344 469.7 1343.5 468.7 1342.6 468.3 1341.9 468.2 1340.9 468.4 1340.5 469.4L1331.6 493.2 1323.2 496.8 1326.3 488.8C1326.7 487.9 1326.1 487.2 1325.2 486.7 1324.6 486.4 1323.6 486.9 1323.2 487.5L1319.1 498.7 1310.7 502.6 1311.6 493.4 1320.8 486C1321.5 485.4 1321.6 484.4 1321 483.7 1320.8 483.1 1319.5 482.9 1318.8 483.5L1312.1 488.9 1313.1 479.7 1333.1 463.8C1333.8 463.2 1333.9 462.2 1333.3 461.5 1332.7 460.8 1331.8 460.7 1331.1 461.3L1313.5 475.2 1314.6 464.4 1322.4 458.1C1323.1 457.6 1323.2 456.6 1322.6 455.9 1322 455.2 1321.1 455.1 1320.4 455.7L1315.1 459.6 1316 451.7C1316.1 450.7 1315.5 450 1314.5 449.9 1313.6 449.8 1312.9 450.4 1312.8 451.4L1312 459.3 1308 454.4C1307.4 453.7 1306.4 453.6 1305.7 454.2S1304.9 455.7 1305.5 456.4L1311.5 463.8 1310.3 474.9 1296.4 457.7C1295.8 457 1294.8 456.9 1294.1 457.5 1293.4 458 1293.3 459 1293.9 459.7L1309.9 479.4 1308.9 488.6 1303.5 481.9C1302.9 481.2 1302 481.1 1301.3 481.7 1300.6 482.3 1300.5 483.2 1301 483.9L1308.5 493 1307.5 502 1300.4 496.7 1298.4 484.9C1298.1 484.2 1297.2 483.5 1296.6 483.8 1295.6 484 1295.2 484.6 1295.1 485.5L1296.4 494.1 1289.3 488.8 1285.1 463.6C1284.9 462.6 1284.3 462.2 1283.4 462.1 1282.4 462.3 1282 463.3 1281.9 463.9L1285.4 486.1 1276.4 479.4 1274.8 469.9C1274.9 469 1274 468.6 1273 468.5 1272.4 468.7 1271.6 469.6 1271.9 470.6L1272.8 476.8 1266.2 472.3C1265.6 471.5 1264.7 471.8 1263.9 472.7 1263.5 473.3 1263.8 474.2 1264.4 474.6L1270.9 479.5 1264.4 480.4C1263.4 480.6 1263 481.6 1263.3 482.2 1263.2 483.2 1263.8 483.6 1264.4 483.6 1264.7 483.7 1264.7 483.7 1265 483.7L1274.5 482.1 1283.5 488.8 1261.6 492.4C1260.6 492.3 1260.2 493.2 1260.1 494.1 1260.3 494.8 1260.9 495.2 1261.6 495.3 1261.9 495.3 1261.9 495.3 1261.9 495.3L1287.4 491.5 1294.6 496.8 1286.1 498.1C1285.1 498.3 1284.7 498.9 1284.6 499.9 1284.8 500.6 1285.4 501.3 1286 501.3 1286.4 501.4 1286.4 501.4 1286.7 501.4L1298.5 499.4 1305.6 504.7 1297.5 508.3 1286.4 504.3C1285.5 503.8 1284.4 504.4 1284.1 505 1284 505.9 1284.2 506.9 1285.1 507L1293.2 510.1 1285 514.1 1260.9 504.8C1260.3 504.5 1259.3 505 1258.9 505.6 1258.8 506.5 1259 507.5 1259.9 508L1280.7 515.9 1270.6 520.3 1261.6 516.8C1260.7 516.4 1259.6 516.9 1259.5 517.9 1259.2 518.5 1259.4 519.5 1260.3 519.9L1266.5 522.1 1259.1 525.6C1258.4 525.8 1258 526.7 1258.2 527.7 1258.5 528.1 1259.1 528.5 1259.7 528.5 1259.7 528.5 1260 528.6 1260.4 528.6L1267.8 525.2 1265.5 531.4C1265.2 532 1265.7 533 1266.3 533.4 1266.6 533.4 1266.6 533.4 1266.6 533.4 1267.6 533.5 1268.3 532.9 1268.3 532.3L1271.9 523.3 1282 518.6 1274 539.7C1273.9 540.6 1274.2 541.3 1275.1 541.7 1275.1 541.7 1275.4 541.7 1275.4 541.7 1276 541.8 1276.7 541.5 1277.1 540.6L1286.4 516.8 1294.5 513.1 1291.4 521.2C1291.3 522.1 1291.5 523.1 1292.5 523.2 1292.4 523.6 1292.7 523.6 1292.7 523.6 1293.4 523.7 1294.1 523.1 1294.5 522.5L1298.5 511.3 1306.9 507.7 1306 516.6 1296.9 524C1296.2 524.6 1296 525.9 1296.6 526.6 1297.2 526.9 1298.2 527 1298.8 526.8L1305.5 521.1 1304.6 530.3 1284.9 546.3C1284.2 546.8 1284.1 547.8 1284.7 548.5 1285.3 549.2 1286.2 549.3 1286.9 548.7L1304.1 534.7 1303 545.9 1295.6 551.9C1294.9 552.4 1294.8 553.4 1295.4 554.1S1296.9 554.9 1297.6 554.3L1302.5 550.3 1301.7 558.3C1301.6 559.2 1302.2 560 1303.1 560.1 1304.1 560.2 1304.8 559.6 1304.9 558.6L1305.7 550.7 1310 555.6C1310.3 556 1310.6 556.3 1310.9 556.4 1311.2 556.4 1311.9 556.1 1312.2 555.9 1312.9 555.3 1313 554.3 1312.5 553.6L1306.2 546.2 1307.3 535.1 1321.6 552.3C1321.9 552.7 1322.2 553 1322.5 553.1 1322.8 553.1 1323.5 552.8 1323.8 552.6 1324.5 552 1324.6 551 1324.1 550.3L1307.8 530.6 1308.7 521.4 1314.1 528.4C1314.4 528.7 1315 528.8 1315.4 528.8 1315.7 528.9 1316 528.9 1316.3 528.6 1317 528 1317.2 526.8 1316.6 526.4L1309.2 516.9 1310.1 508 1317.6 513.3 1319.3 525.1C1319.5 525.7 1320.1 526.4 1320.7 526.5 1321.1 526.5 1321.1 526.5 1321.1 526.2 1322.1 526.3 1322.8 525.4 1322.6 524.4L1321.2 515.9 1328.7 521.2 1332.5 546.7C1332.7 547.4 1333.3 547.7 1334 547.8 1334.3 547.8 1334.3 547.8 1334.3 547.8 1335.3 547.6 1336 547.1 1335.8 546.1L1332.3 523.8 1341.2 530.6 1342.8 540C1343 541 1343.6 541.4 1344.3 541.5 1344.3 541.5 1344.6 541.5 1344.6 541.5 1345.6 541.3 1346 540.4 1346.1 539.7L1344.8 533.2 1351.4 538C1351.7 538.1 1352 538.1 1352.4 538.1 1352.7 538.2 1353.3 537.9 1353.7 537.6 1354.1 536.7 1354.2 535.8 1353.3 535.3L1346.7 530.5 1353.2 529.5C1354.2 529.3 1354.7 528.4 1354.7 527.8 1354.5 526.8 1353.6 526.4 1352.6 526.3L1343.1 527.9 1334.1 521.5 1356.1 517.9C1357 517.7 1357.8 516.8 1357.5 516.2 1357.3 515.2 1356.7 514.5 1355.8 514.7Z" fill="rgba(51, 121, 194, 0.58)"></path><path d="M718.7 78.6L697.7 94.8 674.3 91.6 688.7 72.9 715.1 69.7C715.1 69.7 715.4 69.6 715.4 69.6 716 69.3 716.3 68.5 716.4 67.8 716.3 66.8 715.3 66.1 714.5 66.5L691.4 69.3 698.4 60.3 708.6 58.9C708.6 58.9 708.9 58.7 708.9 58.7 709.5 58.5 709.8 57.7 709.9 57 709.8 55.9 708.8 55.3 708 55.7L701 56.4 706.2 49.8C706.7 49.3 706.5 48 706 47.5 705.3 46.7 704.1 47.2 703.7 47.7L698.4 54.4 697.7 47.4C697.6 46.4 696.6 45.8 695.8 46.1 694.7 46.2 694.1 47.2 694.5 48.1L695.8 58.2 688.7 67 685.9 44C685.8 43 684.8 42.3 684 42.7 682.9 42.7 682.3 43.7 682.7 44.6L685.9 70.9 671.4 89.7 662.3 67.4 672.6 42.8C673 42 672.6 41.1 671.8 40.7 670.9 40.4 670 40.8 669.7 41.6L660.6 63.3 656.2 52.6 660.1 43.5C660.4 42.6 660.1 41.7 659.2 41.4 658.4 41 657.5 41.4 657.2 42.2L654.5 48.5 651.1 40.2C651.1 39.2 649.9 39 649 39.3 648.2 39.7 647.8 40.5 648.2 41.4L651.3 49.1 645.1 46.5C644.2 46.1 643.3 46.5 643 47.3S643 49.1 643.8 49.4L653 53.3 657.4 63.9 635.7 54.8C634.8 54.5 634 54.8 633.6 55.7 633.3 56.5 633.6 57.4 634.5 57.8L659.1 68.1 668.1 90 644.6 86.8 628.9 66.2C628.3 65.5 627.3 65.5 626.4 65.9 625.6 66.6 625.7 67.6 626 68.5L640.2 86.9 628.8 85.3 622.7 77.1C622 76.3 621 76.4 620.1 76.8 619.3 77.4 619.4 78.4 619.7 79L624 84.5 615.6 83.5C614.9 83.4 613.7 83.9 613.8 84.9 613.8 85.9 614.2 86.8 615.2 86.7L623.6 87.8 618.1 92.1C617.3 92.8 617.4 93.8 617.6 94.4 618.2 94.8 619 95.2 619.6 95 619.6 95 619.9 94.8 619.9 94.8L628.1 88.7 639.5 90.3 621.1 104.4C620.3 105.1 620.4 106.1 620.6 106.7 621.1 107.1 622 107.5 622.6 107.2 622.6 107.2 622.9 107.1 622.9 107.1L643.9 90.9 667.3 94.1 652.9 112.8 626.5 116C625.5 116.1 624.8 117 625.2 117.9 625.3 118.9 626.2 119.6 627.1 119.2L650.2 116.3 643.2 125.4 633 126.8C632 126.9 631.3 127.8 631.7 128.7 631.8 129.7 632.7 130.4 633.6 130L640.6 129.2 635.3 135.9C634.9 136.4 635.1 137.7 635.6 138.2 636.1 138.7 636.8 138.7 637.4 138.5 637.7 138.4 638 138.2 638.2 137.8L643.4 131.2 644.2 138.1C644.3 139.1 645.2 139.8 646.1 139.4 646.1 139.4 646.4 139.3 646.4 139.3 647 139.1 647.4 138.2 647.4 137.5L646 127.4 653 118.3 655.9 141.3C656 142.3 656.9 143 657.8 142.6 657.8 142.6 658.1 142.5 658.1 142.5 658.7 142.2 659 141.4 659.1 140.7L655.9 114.3 670.4 95.6 679.3 117.5 669 142.1C668.7 143 669 143.9 669.9 144.2 670.7 144.6 671.6 144.2 671.9 143.4L681.2 122 685.5 132.6 681.7 141.8C681.3 142.6 681.7 143.5 682.5 143.9S684.2 143.9 684.6 143L687.2 136.8 690.4 144.5C690.7 145.4 691.6 145.7 692.5 145.3 693.4 145 693.7 144.1 693.3 143.3L690.2 135.6 696.4 138.2C696.9 138.4 697.3 138.5 697.9 138.3S698.6 137.6 698.8 137.2C699.2 136.4 698.8 135.5 698 135.1L688.8 131.3 684.4 120.6 706.1 129.7C706.5 129.9 707 130.1 707.5 129.8 707.8 129.7 708.3 129.2 708.5 128.8 708.8 127.9 708.5 127 707.6 126.7L683 116.4 674 94.5 697.5 97.6 713.7 118.7C714.2 119.1 715.1 119.5 715.7 119.2 715.7 119.2 716 119.1 716 119.1 716.7 118.5 716.7 117.5 716.4 116.9L702.3 98.4 713.7 100 719.8 108.2C720.3 108.7 721.2 109 721.8 108.8 721.8 108.8 722.1 108.7 722.1 108.7 722.8 108 722.8 107 722.5 106.4L718.2 100.9 726.6 102C726.9 101.9 727.3 102 727.6 101.9 728.2 101.7 728.6 101.1 728.7 100.4 728.6 99.4 728.3 98.5 727.3 98.6L718.9 97.5 724.4 93.2C725.1 92.5 725.1 91.5 724.8 90.9 724.2 90.2 723.1 90.2 722.6 90.5L714.3 96.6 703 95 721.4 80.9C722.2 80.3 722.1 79.3 721.9 78.7 720.6 78.1 719.5 77.9 718.7 78.6Z" fill="rgba(51, 121, 194, 0.58)"></path></g><defs><mask id="SvgjsMask2352"><rect width="1440" height="560" fill="#ffffff"></rect></mask><linearGradient x1="0%" y1="50%" x2="100%" y2="50%" gradientUnits="userSpaceOnUse" id="SvgjsLinearGradient2353"><stop stop-color="#0e2a47" offset="0"></stop><stop stop-color="rgba(0, 80, 158, 1)" offset="1"></stop></linearGradient><filter id="SvgjsFilter2354"><feGaussianBlur stdDeviation="1"></feGaussianBlur></filter></defs></svg>