<svg xmlns="http://www.w3.org/2000/svg" version="1.1" xmlns:xlink="http://www.w3.org/1999/xlink" xmlns:svgjs="http://svgjs.dev/svgjs" width="1440" height="560" preserveAspectRatio="none" viewBox="0 0 1440 560"><g mask="url(&quot;#SvgjsMask1063&quot;)" fill="none"><rect width="1440" height="560" x="0" y="0" fill="url(&quot;#SvgjsLinearGradient1064&quot;)"></rect><path d="M1560 560L0 560 L0 364.56Q-3.66 288.9, 72 285.25Q121.71 262.96, 144 312.67Q210.34 259.01, 264 325.35Q324.89 314.24, 336 375.13Q354.89 322.02, 408 340.91Q457.53 270.44, 528 319.97Q588.67 308.64, 600 369.31Q654.5 351.81, 672 406.3Q683.75 346.06, 744 357.81Q790.15 331.96, 816 378.11Q890.39 332.5, 936 406.89Q966.73 317.62, 1056 348.35Q1064.07 284.42, 1128 292.49Q1221.95 314.44, 1200 408.39Q1198.87 287.25, 1320 286.12Q1383.97 230.1, 1440 294.07Q1551.49 285.56, 1560 397.05z" fill="#182f5d"></path><path d="M1488 560L0 560 L0 406.18Q52.55 386.73, 72 439.27Q102.45 397.72, 144 428.17Q194.77 358.94, 264 409.71Q330.95 404.66, 336 471.62Q349.4 413.02, 408 426.43Q442.12 340.55, 528 374.67Q580.88 355.55, 600 408.43Q654.62 343.05, 720 397.67Q787.98 393.65, 792 461.63Q806.71 404.34, 864 419.05Q909.42 344.47, 984 389.88Q1072.97 358.85, 1104 447.82Q1172.01 395.83, 1224 463.84Q1268.87 436.71, 1296 481.58Q1296.44 410.02, 1368 410.47Q1421.83 344.3, 1488 398.12z" fill="#25467d"></path><path d="M1512 560L0 560 L0 497.62Q69.18 446.81, 120 515.99Q135.93 459.92, 192 475.85Q238.01 449.87, 264 495.88Q319.85 479.73, 336 535.58Q398.76 526.34, 408 589.1Q457 518.1, 528 567.1Q569.13 488.24, 648 529.37Q667.09 476.46, 720 495.55Q761.08 464.63, 792 505.71Q884.8 478.51, 912 571.32Q937.07 524.39, 984 549.46Q1039.85 533.31, 1056 589.16Q1065.89 479.05, 1176 488.94Q1226.59 419.53, 1296 470.12Q1358.5 460.62, 1368 523.12Q1424.18 507.31, 1440 563.49Q1490.02 541.51, 1512 591.53z" fill="#356cb1"></path></g><defs><mask id="SvgjsMask1063"><rect width="1440" height="560" fill="#ffffff"></rect></mask><linearGradient x1="100%" y1="50%" x2="0%" y2="50%" gradientUnits="userSpaceOnUse" id="SvgjsLinearGradient1064"><stop stop-color="#0e2a47" offset="0"></stop><stop stop-color="rgba(0, 111, 158, 1)" offset="1"></stop></linearGradient></defs></svg>