<svg xmlns="http://www.w3.org/2000/svg" version="1.1" xmlns:xlink="http://www.w3.org/1999/xlink" xmlns:svgjs="http://svgjs.dev/svgjs" width="2000" height="560" preserveAspectRatio="none" viewBox="0 0 2000 560"><g mask="url(&quot;#SvgjsMask2788&quot;)" fill="none"><rect width="2000" height="560" x="0" y="0" fill="url(&quot;#SvgjsLinearGradient2789&quot;)"></rect><path d="M857 72L1052 -123" stroke-width="10" stroke="url(&quot;#SvgjsLinearGradient2790&quot;)" stroke-linecap="round" class="TopRight"></path><path d="M442 184L258 368" stroke-width="10" stroke="url(&quot;#SvgjsLinearGradient2791&quot;)" stroke-linecap="round" class="BottomLeft"></path><path d="M339 438L494 283" stroke-width="6" stroke="url(&quot;#SvgjsLinearGradient2790&quot;)" stroke-linecap="round" class="TopRight"></path><path d="M1530 91L1731 -110" stroke-width="6" stroke="url(&quot;#SvgjsLinearGradient2791&quot;)" stroke-linecap="round" class="BottomLeft"></path><path d="M1574 67L1380 261" stroke-width="8" stroke="url(&quot;#SvgjsLinearGradient2790&quot;)" stroke-linecap="round" class="TopRight"></path><path d="M451 33L177 307" stroke-width="6" stroke="url(&quot;#SvgjsLinearGradient2790&quot;)" stroke-linecap="round" class="TopRight"></path><path d="M457 114L154 417" stroke-width="8" stroke="url(&quot;#SvgjsLinearGradient2791&quot;)" stroke-linecap="round" class="BottomLeft"></path><path d="M1162 26L768 420" stroke-width="8" stroke="url(&quot;#SvgjsLinearGradient2790&quot;)" stroke-linecap="round" class="TopRight"></path><path d="M1114 315L1478 -49" stroke-width="8" stroke="url(&quot;#SvgjsLinearGradient2791&quot;)" stroke-linecap="round" class="BottomLeft"></path><path d="M169 374L511 32" stroke-width="8" stroke="url(&quot;#SvgjsLinearGradient2790&quot;)" stroke-linecap="round" class="TopRight"></path><path d="M1664 279L1480 463" stroke-width="6" stroke="url(&quot;#SvgjsLinearGradient2791&quot;)" stroke-linecap="round" class="BottomLeft"></path><path d="M1681 261L1404 538" stroke-width="10" stroke="url(&quot;#SvgjsLinearGradient2791&quot;)" stroke-linecap="round" class="BottomLeft"></path><path d="M1803 533L1612 724" stroke-width="8" stroke="url(&quot;#SvgjsLinearGradient2790&quot;)" stroke-linecap="round" class="TopRight"></path><path d="M1268 34L1448 -146" stroke-width="6" stroke="url(&quot;#SvgjsLinearGradient2790&quot;)" stroke-linecap="round" class="TopRight"></path><path d="M1291 327L1089 529" stroke-width="6" stroke="url(&quot;#SvgjsLinearGradient2790&quot;)" stroke-linecap="round" class="TopRight"></path><path d="M574 94L895 -227" stroke-width="10" stroke="url(&quot;#SvgjsLinearGradient2790&quot;)" stroke-linecap="round" class="TopRight"></path><path d="M341 546L123 764" stroke-width="6" stroke="url(&quot;#SvgjsLinearGradient2791&quot;)" stroke-linecap="round" class="BottomLeft"></path><path d="M1931 15L2339 -393" stroke-width="10" stroke="url(&quot;#SvgjsLinearGradient2791&quot;)" stroke-linecap="round" class="BottomLeft"></path><path d="M1514 479L1929 64" stroke-width="6" stroke="url(&quot;#SvgjsLinearGradient2791&quot;)" stroke-linecap="round" class="BottomLeft"></path><path d="M1051 542L870 723" stroke-width="10" stroke="url(&quot;#SvgjsLinearGradient2790&quot;)" stroke-linecap="round" class="TopRight"></path><path d="M1190 275L826 639" stroke-width="8" stroke="url(&quot;#SvgjsLinearGradient2791&quot;)" stroke-linecap="round" class="BottomLeft"></path><path d="M45 204L-277 526" stroke-width="6" stroke="url(&quot;#SvgjsLinearGradient2790&quot;)" stroke-linecap="round" class="TopRight"></path><path d="M112 11L-178 301" stroke-width="8" stroke="url(&quot;#SvgjsLinearGradient2791&quot;)" stroke-linecap="round" class="BottomLeft"></path><path d="M60 388L-163 611" stroke-width="6" stroke="url(&quot;#SvgjsLinearGradient2791&quot;)" stroke-linecap="round" class="BottomLeft"></path><path d="M1494 458L1240 712" stroke-width="6" stroke="url(&quot;#SvgjsLinearGradient2790&quot;)" stroke-linecap="round" class="TopRight"></path><path d="M900 535L734 701" stroke-width="10" stroke="url(&quot;#SvgjsLinearGradient2791&quot;)" stroke-linecap="round" class="BottomLeft"></path><path d="M1872 495L2216 151" stroke-width="10" stroke="url(&quot;#SvgjsLinearGradient2791&quot;)" stroke-linecap="round" class="BottomLeft"></path><path d="M19 14L376 -343" stroke-width="6" stroke="url(&quot;#SvgjsLinearGradient2790&quot;)" stroke-linecap="round" class="TopRight"></path><path d="M1334 248L1656 -74" stroke-width="6" stroke="url(&quot;#SvgjsLinearGradient2791&quot;)" stroke-linecap="round" class="BottomLeft"></path><path d="M842 414L660 596" stroke-width="10" stroke="url(&quot;#SvgjsLinearGradient2790&quot;)" stroke-linecap="round" class="TopRight"></path><path d="M1885 394L2139 140" stroke-width="10" stroke="url(&quot;#SvgjsLinearGradient2791&quot;)" stroke-linecap="round" class="BottomLeft"></path><path d="M1492 527L1841 178" stroke-width="6" stroke="url(&quot;#SvgjsLinearGradient2791&quot;)" stroke-linecap="round" class="BottomLeft"></path><path d="M527 195L818 -96" stroke-width="6" stroke="url(&quot;#SvgjsLinearGradient2790&quot;)" stroke-linecap="round" class="TopRight"></path><path d="M1898 389L1603 684" stroke-width="10" stroke="url(&quot;#SvgjsLinearGradient2791&quot;)" stroke-linecap="round" class="BottomLeft"></path><path d="M1916 55L1574 397" stroke-width="10" stroke="url(&quot;#SvgjsLinearGradient2790&quot;)" stroke-linecap="round" class="TopRight"></path><path d="M54 82L-365 501" stroke-width="6" stroke="url(&quot;#SvgjsLinearGradient2790&quot;)" stroke-linecap="round" class="TopRight"></path><path d="M740 498L591 647" stroke-width="8" stroke="url(&quot;#SvgjsLinearGradient2791&quot;)" stroke-linecap="round" class="BottomLeft"></path><path d="M1566 178L1344 400" stroke-width="6" stroke="url(&quot;#SvgjsLinearGradient2790&quot;)" stroke-linecap="round" class="TopRight"></path><path d="M973 556L685 844" stroke-width="6" stroke="url(&quot;#SvgjsLinearGradient2791&quot;)" stroke-linecap="round" class="BottomLeft"></path><path d="M1106 3L873 236" stroke-width="10" stroke="url(&quot;#SvgjsLinearGradient2790&quot;)" stroke-linecap="round" class="TopRight"></path><path d="M1204 424L1408 220" stroke-width="8" stroke="url(&quot;#SvgjsLinearGradient2790&quot;)" stroke-linecap="round" class="TopRight"></path><path d="M1684 477L1957 204" stroke-width="8" stroke="url(&quot;#SvgjsLinearGradient2791&quot;)" stroke-linecap="round" class="BottomLeft"></path><path d="M1212 347L1356 203" stroke-width="6" stroke="url(&quot;#SvgjsLinearGradient2790&quot;)" stroke-linecap="round" class="TopRight"></path><path d="M1839 110L2149 -200" stroke-width="8" stroke="url(&quot;#SvgjsLinearGradient2791&quot;)" stroke-linecap="round" class="BottomLeft"></path><path d="M1825 255L1650 430" stroke-width="6" stroke="url(&quot;#SvgjsLinearGradient2791&quot;)" stroke-linecap="round" class="BottomLeft"></path><path d="M1588 13L1969 -368" stroke-width="6" stroke="url(&quot;#SvgjsLinearGradient2791&quot;)" stroke-linecap="round" class="BottomLeft"></path><path d="M859 523L675 707" stroke-width="8" stroke="url(&quot;#SvgjsLinearGradient2790&quot;)" stroke-linecap="round" class="TopRight"></path><path d="M1818 210L2201 -173" stroke-width="6" stroke="url(&quot;#SvgjsLinearGradient2790&quot;)" stroke-linecap="round" class="TopRight"></path><path d="M1848 189L1641 396" stroke-width="10" stroke="url(&quot;#SvgjsLinearGradient2790&quot;)" stroke-linecap="round" class="TopRight"></path><path d="M937 374L520 791" stroke-width="8" stroke="url(&quot;#SvgjsLinearGradient2791&quot;)" stroke-linecap="round" class="BottomLeft"></path><path d="M275 195L421 49" stroke-width="10" stroke="url(&quot;#SvgjsLinearGradient2791&quot;)" stroke-linecap="round" class="BottomLeft"></path><path d="M707 308L1045 -30" stroke-width="6" stroke="url(&quot;#SvgjsLinearGradient2791&quot;)" stroke-linecap="round" class="BottomLeft"></path></g><defs><mask id="SvgjsMask2788"><rect width="2000" height="560" fill="#ffffff"></rect></mask><linearGradient x1="0%" y1="50%" x2="100%" y2="50%" gradientUnits="userSpaceOnUse" id="SvgjsLinearGradient2789"><stop stop-color="#0e2a47" offset="0"></stop><stop stop-color="rgba(33, 56, 103, 1)" offset="1"></stop></linearGradient><linearGradient x1="0%" y1="100%" x2="100%" y2="0%" id="SvgjsLinearGradient2790"><stop stop-color="rgba(28, 83, 142, 0)" offset="0"></stop><stop stop-color="#1c538e" offset="1"></stop></linearGradient><linearGradient x1="100%" y1="0%" x2="0%" y2="100%" id="SvgjsLinearGradient2791"><stop stop-color="rgba(28, 83, 142, 0)" offset="0"></stop><stop stop-color="#1c538e" offset="1"></stop></linearGradient></defs></svg>